<svg class="height-5 width-5 vertical-align-middle {{include.class}}" height="24" viewBox="0 0 512 512" width="24" xmlns="http://www.w3.org/2000/svg"><path d="m256 512c-141.384896 0-256-114.615104-256-256s114.615104-256 256-256 256 114.615104 256 256-114.615104 256-256 256zm68.711753-426h-137.425827c-55.849726 0-101.285926 45.436355-101.285926 101.286272v137.426296c0 55.847596 45.4362 101.287432 101.287086 101.287432h137.425828c55.847405 0 101.287086-45.437515 101.287086-101.287432v-137.426296c-.00116-55.849917-45.43852-101.286272-101.288247-101.286272zm67.288247 238.816813c0 37.104007-30.079308 67.183187-67.183474 67.183187h-137.633052c-37.104166 0-67.183474-30.07918-67.183474-67.183187v-137.632464c0-37.104007 30.079308-67.184349 67.183474-67.184349h137.633052c37.104166 0 67.183474 30.081504 67.183474 67.184349zm-135.998258-156.816813c-48.52298 0-88.001742 39.478762-88.001742 88.001742 0 48.519496 39.478762 87.998258 88.001742 87.998258 48.522979 0 87.998258-39.475279 87.998258-87.998258 0-48.52298-39.475279-88.001742-87.998258-88.001742zm.000007 142c-29.823619 0-54.001749-24.173466-54.001749-53.998251s24.17813-54.001749 54.001749-54.001749 53.998251 24.175798 53.998251 54.001749c0 29.823619-24.174632 53.998251-53.998251 53.998251z"/></svg>