<svg class="height-5 width-5 vertical-align-middle {{include.class}}" height="24" viewBox="0 0 512 512" width="24" xmlns="http://www.w3.org/2000/svg"><path d="m255.991742 0c-141.361548 0-255.991742 115.059613-255.991742 257.032258 0 113.540129 73.339871 209.87871 175.104 243.860645 12.791742 2.370065 17.457548-5.565935 17.457548-12.387097 0-6.094451-.222967-22.255483-.346838-43.709935-71.225807 15.549935-86.247226-34.452645-86.247226-34.452645-11.627355-29.696-28.4077421-37.582452-28.4077421-37.582452-23.2547096-15.95458 1.7507097-15.649032 1.7507097-15.649032 25.6825804 1.808516 39.2010324 26.500129 39.2010324 26.500129 22.858322 39.275355 59.937032 27.920516 74.520774 21.338839 2.304-16.59871 8.935226-27.937033 16.243613-34.353549-56.832-6.499096-116.5873549-28.531613-116.5873549-127.009032 0-28.052645 9.9674839-51.001806 26.3432259-68.987871-2.650839-6.499097-11.429161-32.619355 2.493935-67.996903 0 0 21.504-6.9037421 70.4 26.343226 20.422194-5.698065 42.322581-8.547097 64.099097-8.66271 21.726968.115613 43.643871 2.956387 64.099097 8.66271 48.85471-33.2469681 70.325677-26.343226 70.325677-26.343226 13.956129 35.377548 5.177807 61.497806 2.535226 67.996903 16.417032 17.986065 26.32671 40.926968 26.32671 68.987871 0 98.725161-59.854452 120.443871-116.884645 126.819097 9.191226 7.936 17.374967 23.609806 17.374967 47.599484 0 34.370064-.305548 62.067613-.305548 70.499096 0 6.887226 4.616258 14.889291 17.597936 12.354065 101.632-34.048 174.905806-130.320516 174.905806-243.827613 0-141.972645-114.630194-257.032258-256.008258-257.032258z"/></svg>