<svg height="237" viewBox="0 0 217 237" width="217" xmlns="http://www.w3.org/2000/svg" xmlns:xlink="http://www.w3.org/1999/xlink"><defs><circle id="a" cx="108" cy="108" r="108"/><path id="b" d="m111.6 130.149856v16.550144h3.6c35.788052 0 64.8 29.011948 64.8 64.8v8.1h-180v-8.1c0-35.788052 29.0119482-64.8 64.8-64.8h3.6v-16.550144c-15.5136289-7.369722-26.6649979-22.431546-28.5253751-40.2567414-5.2423455-.7411066-9.2746249-5.246216-9.2746249-10.6931146v-12.6c0-5.3513933 3.892116-9.7937342 9-10.6506748v-5.5493252c0-27.8351514 22.5648486-50.4 50.4-50.4 27.835151 0 50.4 22.5648486 50.4 50.4v5.5493252c5.107884.8569406 9 5.2992815 9 10.6506748v12.6c0 5.4468986-4.032279 9.952008-9.274625 10.6931146-1.860377 17.8251954-13.011746 32.8870194-28.525375 40.2567414z"/><path id="c" d="m97.2 11.763797v17.036203c0 11.9293506 9.670649 21.6 21.6 21.6s21.6-9.6706494 21.6-21.6v-17.036203c16.126829 1.8045472 28.548142 6.7328537 28.796217 19.4166738 23.271993 9.8308131 39.603783 32.8676924 39.603783 59.7190654v8.1004638h-180v-8.1004638c0-26.851373 16.3317896-49.8882523 39.6037824-59.7190513.2480758-12.6838342 12.6693882-17.6121407 28.7962176-19.4166879z"/><path id="d" d="m31.6060596 13.6152695c.9520813 8.5425528 8.197329 15.1847305 16.9939404 15.1847305 8.8237849 0 16.0866067-6.6832776 17.0025833-15.2639508.0737184-.6905778-.6975146-1.8360492-1.664093-1.8360492-13.404612 0-23.6743611 0-30.5603484 0-.9721868 0-1.8673367 1.0605992-1.7720823 1.9152695z"/><path id="e" d="m162.134982 35.9283675c-2.483796-2.5380086-5.367661-4.6922208-8.172655-6.8524722-.618917-.4761975-1.247768-.9409203-1.852838-1.4352356-.13757-.1123307-1.54669-1.1214948-1.715267-1.4929107-.405788-.8935119-.170684-.1977865-.114692-1.2640219.070742-1.3482699 2.820046-5.1563397.768529-6.02962-.902487-.3840983-2.512394.6380503-3.378156.9756462-1.693291.6606975-3.407354 1.2241626-5.157842 1.7100229.838669-1.6710695 2.437738-5.0162283-.567742-4.1209046-2.341409.6975371-4.523272 2.4909022-6.87612 3.33459.778463-1.2761005 3.891712-5.2303209 1.078589-5.4513586-.875394-.0688479-3.422707 1.5732331-4.365231 1.9235115-2.823056 1.0493254-5.70662 1.7275369-8.670558 2.2617114-10.078172 1.8163144-21.863484 1.2984458-31.1878787 5.886791-7.1885887 3.5372079-14.2868685 9.0257081-18.4395729 16.0146682-4.0024906 6.736518-5.4995112 14.1089725-6.3372768 21.8283837-.6147026 5.6651493-.6646735 11.5211399-.3771902 17.2068227.0939213 1.8628167.3034379 10.449771 3.0096947 7.8492558 1.348312-1.2957281 1.338378-6.5278608 1.6779395-8.2988804.6758116-3.5236196 1.3263367-7.0629413 2.4530908-10.4739282 1.9855918-6.0108982 4.3279037-8.8137458 9.2744234-12.9536742 3.1743579-2.6563785 5.4034827-6.2467322 8.4411732-8.9266639 1.3645675-1.2036291.3233059-1.078314 2.5172102-.9203867 1.4738413.1059894 2.9543052.1464526 4.4311568.185104 3.416386.0887775 6.83819.0661301 10.255479.0782087 6.882141.0247611 13.732071.1219935 20.607589-.2382497 3.055451-.160041 6.119331-.2467047 9.166655-.5293431 1.702322-.1579273 4.722854-1.2489237 6.124147-.4152007 1.282387.7627614 2.614142 3.2533616 3.534992 4.2733965 2.175541 2.4105797 4.769514 4.2516551 7.313516 6.2283123 5.304745 4.1215086 7.983006 5.6980799 9.594117 12.138975 1.60509 6.4170399 1.155051 12.3704181 3.141847 18.6853941.349495 1.1103222 1.273957 3.0241709 2.413656 1.3087126.211623-.3185721.156836-2.0698987.156836-3.0776185 0-4.0677711 1.030124-7.1198656 1.017179-11.2141974-.050573-12.4487736-.453049-28.6814599-9.7648-38.1948402z"/><mask id="f" fill="#fff"><use fill="#fff" fill-rule="evenodd" xlink:href="#a"/></mask><mask id="g" fill="#fff"><path d="m10.8 144h-10.8v-144h237.6v144h-10.8c0 59.646753-48.353247 108-108 108s-108-48.353247-108-108z" fill="#fff" fill-rule="evenodd"/></mask><mask id="h" fill="#fff"><use fill="#fff" fill-rule="evenodd" xlink:href="#b"/></mask><mask id="i" fill="#fff"><use fill="#fff" fill-rule="evenodd" xlink:href="#c"/></mask><mask id="j" fill="#fff"><use fill="#fff" fill-rule="evenodd" xlink:href="#d"/></mask><mask id="k" fill="#fff"><path d="m0 0h237.6v252h-237.6z" fill="#fff" fill-rule="evenodd"/></mask><mask id="l" fill="#fff"><use fill="#fff" fill-rule="evenodd" xlink:href="#e"/></mask></defs><g fill="none" fill-rule="evenodd" transform="translate(-10 -15)"><g transform="translate(10.8 36)"><use fill="#e6e6e6" xlink:href="#a"/><g fill="#55751f" mask="url(#f)"><path d="m0 0h216.445361v216h-216.445361z"/></g></g><g mask="url(#g)"><g transform="translate(28.8 32.4)"><use fill="#d0c6ac" xlink:href="#b"/><g fill="#ffdbb4" mask="url(#h)"><path d="m0 0h238.383871v220.354839h-238.383871z" transform="translate(-28.8)"/></g><path d="m140.4 84.6v7.2c0 27.835151-22.564849 50.4-50.4 50.4-27.8351514 0-50.4-22.564849-50.4-50.4v-7.2c0 27.835151 22.5648486 50.4 50.4 50.4 27.835151 0 50.4-22.564849 50.4-50.4z" fill="#000" fill-opacity=".1" mask="url(#h)"/></g><g fill-rule="evenodd" transform="translate(0 153)"><use fill="#b7c1db" xlink:href="#c"/><g fill="#293347" mask="url(#i)"><path d="m0 0h238.490722v99h-238.490722z"/></g><path d="m91.8 55.5651478v43.4348522h-6.3v-46.6647637c1.9833788 1.1788156 4.0920924 2.2594727 6.3 3.2299115zm60.3-3.2299115v36.3147637c0 1.739697-1.410303 3.15-3.15 3.15s-3.15-1.410303-3.15-3.15v-33.0848522c2.207908-.9704388 4.316621-2.0510959 6.3-3.2299115z" fill="#f4f4f4" mask="url(#i)"/><path d="m118.790834 61.1999996c-30.1129545-.0029179-59.840834-14.383791-59.840834-32.1230765 0-9.9583268 9.3683786-15.0628627 22.9141196-17.6250048-8.1765481 3.0150955-13.4641196 8.0835308-13.4641196 16.5173125 0 18.3506359 25.0330513 33.2271842 50.390834 33.2307686zm36.945046-49.7480813c13.545741 2.5621421 22.91412 7.666678 22.91412 17.6250048 0 17.7392855-29.72788 32.1201586-59.840834 32.1230765 25.357783-.0035846 50.390834-14.8801329 50.390834-33.2307688 0-8.4337817-5.287572-13.502217-13.46412-16.5173125z" fill="#000" fill-opacity=".16" mask="url(#i)"/></g><g transform="translate(68.4 73.8)"><g fill-rule="evenodd" transform="translate(1.8 46.8)"><use fill="#000" fill-opacity=".7" xlink:href="#d"/><rect fill="#fff" height="14.4" mask="url(#j)" rx="4.5" width="27.9" x="35.1" y="1.8"/><g fill="#ff5f7d" mask="url(#j)"><g transform="translate(34.2 21.6)"><circle cx="9.9" cy="9.9" r="9.9"/><circle cx="18.9" cy="9.9" r="9.9"/></g></g></g><g fill="#000"><path d="m14.4 7.2c0 3.9764502 4.8353247 7.2 10.8 7.2s10.8-3.2235498 10.8-7.2" fill-opacity=".16" transform="translate(25.2 36)"/><g fill-opacity=".6"><g transform="translate(0 7.2)"><path d="m14.5441507 20.2025804c1.6618577-3.4189232 5.4038295-5.8025804 9.7536716-5.8025804 4.3344866 0 8.0653872 2.3668578 9.7359943 5.7664118.4962679 1.0098661-.2099232 1.8363217-.9222703 1.2239087-2.2059906-1.8965155-5.3387016-3.080911-8.813724-3.080911-3.3663368 0-6.4114397 1.1114672-8.6040371 2.9050676-.8016716.6557878-1.6356941-.0119311-1.1496345-1.0118967z"/><path d="m66.7441507 20.2025804c1.6618577-3.4189232 5.4038295-5.8025804 9.7536716-5.8025804 4.3344866 0 8.0653872 2.3668578 9.7359943 5.7664118.4962679 1.0098661-.2099232 1.8363217-.9222703 1.2239087-2.2059906-1.8965155-5.3387016-3.080911-8.813724-3.080911-3.3663368 0-6.4114397 1.1114672-8.6040371 2.9050676-.8016716.6557878-1.6356941-.0119311-1.1496345-1.0118967z"/></g><g><path d="m23.4351841 5.58911128c-5.1853843.69600466-13.2715459 5.21561182-12.5953501 10.44691872.0222193.1712189.2812232.2245821.3929829.0816144 2.2378468-2.8693428 19.5407007-7.08475112 25.8420237-6.20440081.5767065.08075823.957419-.51451268.5641045-.8860576-3.3700355-3.18181715-9.5586039-4.06616257-14.203761-3.43807471" transform="matrix(.9961947 .08715574 -.08715574 .9961947 1.033751 -2.076787)"/><path d="m76.5351841 5.58911128c-5.1853843.69600466-13.2715459 5.21561182-12.5953501 10.44691872.0222193.1712189.2812232.2245821.3929829.0816144 2.2378468-2.8693428 19.5407007-7.08475112 25.8420237-6.20440081.5767065.08075823.957419-.51451268.5641045-.8860576-3.3700355-3.18181715-9.5586039-4.06616257-14.203761-3.43807471" transform="matrix(-.9961947 .08715574 .08715574 .9961947 153.564188 -6.704757)"/></g></g></g></g><g mask="url(#k)"><g fill-rule="evenodd" transform="translate(-.9)"><use fill="#1f3140" xlink:href="#e"/><g fill="none" mask="url(#l)"><path d="m0 0h239.106977v252.406452h-239.106977z" fill="#4a312c" transform="translate(.9)"/></g></g></g></g></g></svg>