<svg xmlns="http://www.w3.org/2000/svg" viewBox="0 0 2159.75 819.28"><defs><style>.cls-1{fill:#ecf1f7;}.cls-2{fill:#3d3d5e;}.cls-3{fill:#d2e7f6;}.cls-4{fill:#ecf1f6;}.cls-5{fill:#4cb486;}.cls-6{fill:#1c1d33;}.cls-7{fill:#abc9e8;}.cls-8{fill:#f6d3b8;}.cls-9{fill:#299a6a;}.cls-10{fill:#e9eef4;}.cls-11{fill:#ef9533;}.cls-12{fill:#dda466;}.cls-13{fill:#fefefe;}.cls-14{fill:#c4c7d6;}.cls-15{fill:#f4b79d;}.cls-16{fill:#f7d2a1;}.cls-17{fill:#d5d9e0;}.cls-18{fill:#f8d2a2;}.cls-19{fill:#e3e8ee;}.cls-20{fill:#e6eaf1;}.cls-21{fill:#2f2d43;}</style></defs><title>Asset 1</title><g id="Layer_2" data-name="Layer 2"><g id="Layer_1-2" data-name="Layer 1"><path class="cls-1" d="M1112,808.19c-9-2-18.18-3.37-27-6.05-22.75-6.93-45.33-14.41-68-21.76-1.26-.41-2.26-1.63-3.39-2.46,4.57-5.22,9.56-10.14,13.64-15.71,15.35-21,25-44.37,27.13-70.31,2.19-27-4.31-52.48-17-76.37-2-3.87-4.36-7.6-6.55-11.39a8.75,8.75,0,0,0-1.8,4.67c-1.88,15.81-7.64,29.51-20.87,39.34-1,.73-1.42,3-1.17,4.45,1.82,10.6,4.77,21.08,5.69,31.75,2.67,31-5.82,59.21-23.13,84.89l-2.9-1,13.48-23.81c-3.44-.95-5.66-1.47-7.81-2.18-10.1-3.36-19.84-7.42-27.68-15l.24-1.69a61.08,61.08,0,0,1,5.63,2.92,82.86,82.86,0,0,0,30.41,12.61c10.12-25.14,11.14-50.72,5.58-76.76-.2-.94-2-2.15-3-2.19A55.81,55.81,0,0,1,975,652.87c-5.51-3.53-10.72-7.55-16.2-11.45a21.93,21.93,0,0,1-2,3c-7.29,7.6-14.64,15.16-22,22.73l-19.43-6.81c-1.35-2.8-3.31-5.91-4.39-9.29-2.21-6.88.16-13.34,2.51-19.78,3.7-10.13-2-22.49-11.87-26.3l-2.88,5.3V603.7c-5.07-1.06-9.36.09-12.68,3.23s-5.66,6.73-8.45,10.14c-5-10.11-6.72-20.62-3.91-31.69.36-2.62,1.15-5.26,1-7.84-.91-13.5-1.62-27-3.25-40.46-1.71-14.05-4.4-28-6.66-42l3.34-.59c-.8-3.89-1.88-7.41-2.2-11a18.45,18.45,0,0,0-10.06-15.46c0-10.45.76-21-.32-31.33a215.67,215.67,0,0,0-6.33-32.36c-2.85-10.86-9.51-19.85-16.54-28.46a65.15,65.15,0,0,1,1.82-30.85c2.82-9.77,7-19.17,10.5-28.73a81.16,81.16,0,0,0,8.68-2.23c9.11-3.39,14.32-10.35,13.16-17.78-.83-5.38-2.18-10.68-3.3-16,3.28-1.54,3.82-3.83,1.88-6.83-3-4.57-5.65-9.35-8.94-13.68-9-11.86-19.52-22-33.69-27.61l-15.94-4.06c-2.93-4.31-5.44-9-9-12.78-1.78-1.91-5.36-2.13-8.12-3.11-2.9-5.17-5.76-10.37-8.72-15.51a232,232,0,0,1-24.29-59.43c8.48,1.34,16.91,1.61,25.44-.47-2.71-5.36-5.45-9.94-7.42-14.82-4.06-10-11.27-15.26-22-15.76,1-39,20.35-65.17,56.92-78.67a216.12,216.12,0,0,1,39.38-10c14.39-2.4,29-1.34,43.6.3,23.36,2.62,46,8.27,68.16,15.65,14.63,4.87,28.8,11.13,43.17,16.78,4.91,1.94,9.81,3.91,14.72,5.86,0,4.55.11,9.11,0,13.66-.26,11.8,4.52,21.82,11,31.2,5.68,8.25,12.45,15.37,22,19.18,1.08.71,2.12,1.5,3.25,2.11,9.88,5.33,20.62,6.22,31.55,6.14-11.06,7.49-14.36,15.93-10.21,28.7,1.83,5.62,5.19,10.73,7.8,16.1,2.17,4.46,4.27,9,6.39,13.45-9.14-5.24-18.81-4-28.42-2-3.33.71-4.53,3.46-4.1,6.94.65,5.21,1.11,10.45,1.65,15.67-7.35,2.58-14.77,5-22,7.76-19.53,7.5-34,20.6-42.59,39.78-2.73,6.14-4.23,12.84-6.3,19.28l-15.1-1-2.41-.67-24.63-1.11c-3.22,1-9.84,10.42-8.25,12.48,2.93,3.81.57,6.48-.91,9.51-4.56,9.4-9.2,18.77-13.64,28.23-.6,1.29-.84,3.5-.14,4.53,3.17,4.63,6.74,9,10.17,13.43l1.36,2.11,15.65,22.42,29.57,3,1.62.42c6.09.53,12.17,1.21,18.28,1.49a5,5,0,0,0,3.91-2c6.34-12.18,12.45-24.47,18.63-36.73,2.45-.76,6.51-.92,7.05-2.39,1.46-3.93,1.42-8.42,2-12.69l-18.69-21.6-2.24-1.56c-3.76-4.51-7.81-8.83-11.2-13.61a9,9,0,0,0-8.75-4.22c3.74-21.32,14-38.89,32.69-49.87,11.16-6.55,23.91-10.37,36-15.41,3.75,27.3,6.46,54.67,5,82.29-6.3.62-3.65,5.32-3.41,8.36.5,6.22,1.76,12.38,2.59,18.58,1.32,10,2.55,19.92,3.81,29.89,1.4,11.11,2.17,22.36,4.41,33.31,1.71,8.35,1.77,17.4,7.35,24.71.15.2-1,1.38-1.5,2.11-4.32,0-8.65-.2-12.95,0-5.76.32-11,2.41-13.88,7.57-5.52,10-5.14,20.52-2.27,31.53,7.22-3.64,14.2-6.72,20.72-10.57,6.28-3.71,9.4-9.66,9.38-17.09,0-2.16.07-4.32.11-6.48.88,2.31,1.94,4.57,2.62,6.94,4.5,15.75,8.83,31.54,13.41,47.27,4.66,16,10,31.84,14.21,47.95,3.58,13.6,4.47,27.5-.46,41.12-3,8.24-6.61,16.27-9.3,24.61-5.06,15.69-.84,26.48,12.36,33.14l3.19,9.3a20.56,20.56,0,0,1-.2,2.49,419.86,419.86,0,0,0-8.58,94.14C1106.86,749.53,1110,778.85,1112,808.19Zm-107-162c1.93-1.43,3.46-2.38,4.78-3.58,10-9.09,14.27-20.85,16.08-33.92.87-6.27,1.47-12-3.49-17.13-8.65-9-16.49-18.78-25.55-27.3s-19.39-16.4-32.14-19.39C956.65,543,949,543.76,943.11,549c12,15.31,24.18,30,35.46,45.43C990,610,998.31,627.44,1005.06,646.19ZM940.18,552.6c-11.43,12.52-9.26,35.68,3.36,46.42,11.13,9.48,19.75,20.36,17.32,36.46-.2,1.3.83,3.23,1.89,4.2,8.18,7.49,17.31,13.59,27.92,17,4.38,1.4,9.14,1.6,14.93,2.55C993.41,616.54,969.85,583,940.18,552.6Z"/><path class="cls-1" d="M1121.8,115.27a72.45,72.45,0,0,0,6.16,6c19.33,15,38.74,29.88,58.08,44.86.83.65,1.18,1.9,1.75,2.87-2.53,1.22-5.34,2.08-7.54,3.74-4.81,3.64-4.16,7.91,1.33,10.25,1.63.69,3.38,1.1,6.21,2-2.57,1.94-4.43,3.41-6.36,4.79-3.06,2.2-7.68,4.08-5.73,8.6,1,2.32,5.07,3.31,7.75,4.91l1.29-1.14c0,3.44,0,6.88,0,10.32s.8,6.53,4.85,6.88c4.59.4,4.62-3.46,5.2-6.43.68-3.49,1-7,1.61-11.26,2.06,1.11,3.26,2.08,4.61,2.4,1.79.42,4.64,1.11,5.35.26a6.75,6.75,0,0,0,1-5.8c-1-2.5-3.3-4.48-4.94-6.76-.61-.83-1.51-2.13-1.23-2.74.37-.81,1.7-1.39,2.73-1.63,2.24-.53,4.56-.78,6.85-1.14,1.11,1.93,1.88,4.18,3.38,5.73,13.83,14.34,28.46,28,41.54,43,16.1,18.47,31.89,37.36,46,57.33a445,445,0,0,1,32.57,54.65,468.76,468.76,0,0,1,23.82,55.79c4.93,13.78,7.94,28.39,10.45,42.86,3.14,18.06,4.75,36.37,7.28,54.54,3.49,25.12,3.85,50.41,2.63,75.6-1,19.75-4,39.47-7.24,59-2.1,12.67-6.23,25-9.46,37.47-4.44-3.92-9-7.72-13.3-11.78-6-5.67-11.82-11.53-17.72-17.3,0-2.71.89-6-.27-8-10.84-19.4-22.36-38.42-33-57.92-8.21-15-15.44-30.51-23.2-45.75a40.27,40.27,0,0,0-3.81-5.3c9.74-8.42,12.55-19.53,10.74-31.57-2-13.55-4.32-27.2-8.23-40.3-5.32-17.85-8.83-35.51-7.29-54.35,1.15-14,.63-28.28-.51-42.32-1.06-13.21-5.22-26.23-17.85-32.78a225.2,225.2,0,0,0-37.85-15c-18.73-5.7-47.65,11.06-42.61,35a4.78,4.78,0,0,1-.15,1.48c-4.48,12.81-6.22,26.09-7,39.56-.41,7.07,2.16,12.53,8,16.45l12.1,4.89-14.36,19.09c-11.22,1.24-18.88-4.5-25.21-12.85-4.49-5.92-9.34-11.6-13.45-17.77-8.42-12.6-15.38-26.23-18.68-40.91-3.93-17.49-5.55-35.48-8.5-53.2-.7-4.2-.23-9.91-7-10.32a13.91,13.91,0,0,1-.83-2.34c-2-13-4.55-26-5.76-39.15-.83-8.94-.29-18.09.52-27.07.94-10.33,2.85-20.58,4.33-30.87,0-3.28.67-6.83-.35-9.79-1.42-4.16-4.38-7.75-6.23-11.8-2.79-6.11-6.12-12.21-7.53-18.68-2.29-10.46,3.62-19.21,13.2-21.69.46,6.41.93,12.82,1.38,19.1l16-8.4c-3.55-3.94-7-7.79-10.48-11.65l.76-.68c1.23-.76,2.41-1.59,3.68-2.26Q1111.55,120.56,1121.8,115.27Zm232,440c2-3,4.62-5.7,5.82-9,.84-2.27-.26-5.26-.49-7.92-2.44.26-4.88.49-7.31.81a14.4,14.4,0,0,0-2.63,1.14c.56-3.55,1.42-6.43,1.34-9.28a7.45,7.45,0,0,0-2.48-5.27c-.86-.61-3.31.92-5,1.6-.56.23-1,.82-2.17,1.89-1.77-2.09-3.38-4.17-5.17-6.07s-4.65-4-6.76-1.37c-1.08,1.32-.37,4.8.53,6.88,1.06,2.41,3.21,4.35,5.1,6.77a16.08,16.08,0,0,0-2.52,1.18c-1.55,1.21-3,2.5-4.54,3.76,1.8,1.45,3.42,3.26,5.44,4.22,1.76.84,4,.72,6.68,1.13a41.78,41.78,0,0,1-2.18,4.14c-3.08,4.33-2.46,6.34,2.44,8.49,4.65,2.06,8.74.13,12.92-1.47,3.13,4.75,5.88,9.81,10,13.75l1.19-.9Z"/><path class="cls-2" d="M1112,808.19c-2-29.34-5.18-58.66-5.83-88a419.86,419.86,0,0,1,8.58-94.14,20.56,20.56,0,0,0,.2-2.49,7.38,7.38,0,0,1,2.35-.44c10.19,1.48,20.32,3.66,30.57,4.44,22.18,1.71,44.41,2.87,66.63,4,9.6.46,19.23.15,28.84.19,5.78,13.58,12.22,26.93,17.2,40.8,8.08,22.47,9.48,46.36,13.27,69.74,2.49,15.37,5.32,30.68,8,46a135.27,135.27,0,0,1-43,24.19c1.47-8.73-2.23-13.59-10.78-15.83-2.42-.64-5.22-3.59-6-6.06-3.33-10.68-6.83-21.43-8.68-32.42-2.89-17.24-4.55-34.69-6.64-52.06-.91-7.52-1.63-15.07-2.54-23.69-1.57,16.06-4.89,26-12.4,35-2.36,2.83-3.38,5.5-3,9,0,4.82-.11,9.64-.12,14.46q-.1,39.15-.18,78.3c-25-.52-49.48-4.48-73.83-9.7A13.71,13.71,0,0,1,1112,808.19Zm144.75-96c-10.17,5.57-20.84,7.61-33.5,3.18,12.68,13.12,28.77,7.5,33.49-3.19a1.33,1.33,0,0,0,.34-.16c.05,0,.05-.17.07-.26Zm-131.34,4.83.34.17a1.83,1.83,0,0,0-.14-.35c-.05-.06-.17-.06-.26-.08s0,.18,0-.45c7.92,15.78,29.33,16.4,42.67,5.51C1152.78,725.59,1139.33,722.88,1125.45,717.06Z"/><path class="cls-1" d="M766.23,630.17c-1.53-.86-3.31-1.45-4.54-2.62-15.51-14.68-28.72-31.24-40.75-48.87-13-19.08-22.7-39.81-31.36-61.07a285.12,285.12,0,0,1-16.44-57.23A235.61,235.61,0,0,1,670,402.83c.76-11.34,3.17-22.57,4.84-33.84a89.17,89.17,0,0,0,7.23-7.46c1.63-2.1,2.56-4.75,4.1-7.73,1.74,1.89,2.67,3.34,4,4.2s3.59,2.18,4.61,1.66c1.4-.72,2.52-2.87,2.85-4.58s-.53-3.51-.85-5.28q-.54-3-1.07-5.91c2.05,0,4.18-.39,6.13,0,4.1.9,6.3-.28,7-4.59,1.22-7.45-2.15-12.4-8.2-16.06,1-1.86,2-3.71,2.95-5.59,2.35-4.62,4.66-9.25,7-13.88,2.44-2.53,4.5-5.7,7.4-7.49,12.56-7.73,26.23-9.62,40.65-6.69a54.15,54.15,0,0,0,6.4.55c5.38,7.66,11.09,15.12,16,23.08,2.14,3.47,2.63,8,3.86,12q-1.5,10-3,19.94c-3.41,2.45-7.66,4.25-10.06,7.45-9.12,12.1-15.32,25.73-20.45,40-9,25.12-12.32,51.13-12.35,77.5,0,20.51,1.21,41.07,3,61.5,1.06,11.76,4,23.42,6.9,34.93,1.54,6.09,3.11,12.67,9,16.67q1.49,3,3,6c.1,4.44-.23,8.94.41,13.31C762.67,611.82,764.56,621,766.23,630.17Z"/><path class="cls-3" d="M1051.77,120.23c-9.59-3.81-16.36-10.93-22-19.18-6.46-9.38-11.24-19.4-11-31.2.1-4.55,0-9.11,0-13.66.79-13.71,6.93-25.21,15.83-35,16.78-18.58,38.11-24,62.3-19.82a9.09,9.09,0,0,0,1.33,2.51c3.91,3.77,8.17,7.22,11.84,11.22,10.73,11.7,15.53,26.05,15.36,41.49-.09,9.24-1.63,18.56-6.13,27.38-7.28,14.25-17.6,24.86-32.11,31.28C1075.91,120.17,1064.09,122.22,1051.77,120.23Zm19.41-107-.88-1.89c-6.12,3.07-12.59,5.57-18.26,9.31-11.77,7.75-18.7,19.17-22,32.71-1.65,6.67-.44,7.92,6.27,7.93,1.83,0,3.68-.13,5.5,0,3,.27,4-.94,4.08-4A50.89,50.89,0,0,1,1047.08,45C1050.77,31.22,1059.32,20.92,1071.18,13.18Z"/><path class="cls-4" d="M1281.84,788.23c-2.67-15.34-5.5-30.65-8-46-3.79-23.38-5.19-47.27-13.27-69.74-5-13.87-11.42-27.22-17.2-40.8.35-.35.65-.94,1-1,5.4-1,8.59-3.75,8.49-9.67a4.42,4.42,0,0,1,2-3.13c4.47-2.7,5.89-6.85,6.12-11.69,2.27,2.54,4.62,5,6.81,7.63,9.51,11.4,18.55,23.22,28.61,34.1,5.26,5.69,10.57,12.89,20.27,11.3,1.84,2.33,3.71,4.64,5.53,7,10,12.93,19.59,26.12,26.57,41-3.29,5.3-6.38,10.74-9.9,15.87-8.15,11.84-15.73,24.19-25,35.11-8.74,10.31-19.3,19.07-29.12,28.46A12.42,12.42,0,0,1,1281.84,788.23Z"/><path class="cls-5" d="M934.83,667.14c7.33-7.57,14.68-15.13,22-22.73a21.93,21.93,0,0,0,2-3c5.48,3.9,10.69,7.92,16.2,11.45a55.81,55.81,0,0,0,28.58,9.24c1.06,0,2.81,1.25,3,2.19,5.56,26,4.54,51.62-5.58,76.76a82.86,82.86,0,0,1-30.41-12.61,61.08,61.08,0,0,0-5.63-2.92,8.79,8.79,0,0,0-1.14-2.12c-4.54-4.79-9.18-9.48-13.7-14.3-2.43-2.59-4.67-5.36-7-8.05l-1.37,1.27a59.58,59.58,0,0,0,23,24.89c7.84,7.57,17.58,11.63,27.68,15,2.15.71,4.37,1.23,7.81,2.18L986.78,768.2c-8.29-3.4-16.72-6.49-24.83-10.27-14.89-7-29.6-14.32-44.38-21.51l.18-10.3c-.35-1.19-.69-2.38-1-3.58.57-15,3.52-29.23,11.65-42.51,4.72,6.89,6.1,15,12.91,19.74-.46-3.13-1.86-5.78-3-8.52-3.21-7.38-10.6-14.18-3.44-23.13C935,667.91,934.82,667.47,934.83,667.14Z"/><path class="cls-5" d="M989.68,769.24c17.31-25.68,25.8-53.9,23.13-84.89-.92-10.67-3.87-21.15-5.69-31.75-.25-1.41.18-3.72,1.17-4.45,13.23-9.83,19-23.53,20.87-39.34a8.75,8.75,0,0,1,1.8-4.67c2.19,3.79,4.5,7.52,6.55,11.39,12.67,23.89,19.17,49.33,17,76.37-2.1,25.94-11.78,49.35-27.13,70.31-4.08,5.57-9.07,10.49-13.64,15.71-3.12-.72-6.36-1.11-9.33-2.24C999.39,773.78,994.57,771.41,989.68,769.24Z"/><path class="cls-2" d="M874.89,712.92c-28.52-16.82-55.94-35.21-81.33-56.53.08-1,.48-2.11.19-3-2.93-8.94-6.66-17.69-8.8-26.81s-2.68-18.49-3.92-27.75l41.68,2.46,21.08,23-8.73,13.09c3.75,0,6.32.34,8.76-.07,6.39-1.07,11.14-4.92,14.87-10,2.53-3.44,4.69-7.14,7-10.73l1.7.43c-.74,7.79-1.43,15.59-2.27,23.38-.24,2.18-1,4.41,2.62,2.81-.19,1.13-.37,2.26-.58,3.39-1.19,6.62-.68,12.64,4.3,18,5.19,5.56,10.91,10.08,18.14,12.54l0,1.16c-10.81-1.51-17.08-9.27-23.76-17.8-.18,13-.82,25.22,3.51,37C871.22,702.62,873,707.78,874.89,712.92Z"/><path class="cls-6" d="M784.84,325.25c-1.23-4-1.72-8.53-3.86-12-4.9-8-10.61-15.42-16-23.08-2.91-5.21-6.14-10.28-8.66-15.67-4.59-9.84-2.94-19.24,3.79-27.47a82.83,82.83,0,0,1,12.43-12.19c5.92-4.75,11.5-9.48,13.85-17.1.62-2,2.24-3.67,3.39-5.48,2.76,1,6.34,1.2,8.12,3.11,3.51,3.77,6,8.47,9,12.78-2.05,3-4.51,5.74-6,8.95-1.76,3.67-1.83,7.64,1,11.13,3.31,4,6.57,8.09,9.85,12.13,2.5,6.1,4.74,12.32,7.56,18.27,4.59,9.69,11.86,12.85,22.08,9.53,5-1.63,9.7-4.22,14.65-6.1a53.63,53.63,0,0,1,7.54-1.73c1.12,5.34,2.47,10.64,3.3,16,1.16,7.43-4.05,14.39-13.16,17.78a81.16,81.16,0,0,1-8.68,2.23c-7.31.47-12.67-3.24-17.47-8.14-5.21-6.88-10.37-13.8-15.65-20.62a14,14,0,0,0-11.2-5.61c-4.06-.11-5.47,1.91-4.65,5.62a105.7,105.7,0,0,0,3,11.54C802.36,308.77,797,320.25,784.84,325.25Z"/><path class="cls-7" d="M1051.77,120.23c12.32,2,24.14-.06,35.39-5,14.51-6.42,24.83-17,32.11-31.28,4.5-8.82,6-18.14,6.13-27.38.17-15.44-4.63-29.79-15.36-41.49-3.67-4-7.93-7.45-11.84-11.22a9.09,9.09,0,0,1-1.33-2.51c24.47,6.57,41.26,21.76,47.53,46.27,6.87,26.84-1.16,49.76-22.6,67.68q-10.23,5.31-20.45,10.64c-1.27.67-2.45,1.5-3.68,2.26l-11.1.31c-10.93.08-21.67-.81-31.55-6.14C1053.89,121.73,1052.85,120.94,1051.77,120.23Z"/><path class="cls-8" d="M1348.82,707.19c-7-14.88-16.57-28.07-26.57-41-1.82-2.35-3.69-4.66-5.53-7l14-16.1c5.9,5.77,11.72,11.63,17.72,17.3,4.31,4.06,8.86,7.86,13.3,11.78,5.93,4,12,7.77,17.72,12,2.68,2,4.71,4.84,7,7.3l-1.75,2.31-15.09-8.21c2.81,11.54,13.67,17.41,16.15,27.74l-1.21,1-15.77-15.18-1.16,1q7.68,10.92,15.35,21.83l-1.61,1.38-9.07-10.07a83.49,83.49,0,0,0-9.74-9.71c3.22,8.67,11.68,14.4,12.48,24.4-8.33-4.87-11.35-14.6-19.34-20l9.3,17.3-1.61,1.09C1356,722.17,1353.9,713.43,1348.82,707.19Z"/><path class="cls-6" d="M1188.82,726.35c-.35-3.45.67-6.12,3-9,7.51-9,10.83-19,12.4-35,.91,8.62,1.63,16.17,2.54,23.69,2.09,17.37,3.75,34.82,6.64,52.06,1.85,11,5.35,21.74,8.68,32.42.77,2.47,3.57,5.42,6,6.06,8.55,2.24,12.25,7.1,10.78,15.83l-23,4.56c-6.57-20.32-13.36-40.58-19.63-61C1193.27,746.26,1191.27,736.24,1188.82,726.35Z"/><path class="cls-9" d="M874.89,712.92c-1.85-5.14-3.67-10.3-5.55-15.42-4.33-11.79-3.69-24-3.51-37,6.68,8.53,12.95,16.29,23.76,17.8l3.91,3.13c2.12,11.17,5.91,21.76,12.36,31.12,3.39,4.92,7.89,9.08,11.89,13.58l-.18,10.3Z"/><path class="cls-10" d="M1188.82,726.35c2.45,9.89,4.45,19.91,7.44,29.63,6.27,20.42,13.06,40.68,19.63,61-3.63.75-7.24,1.91-10.91,2.14-5.47.34-11,0-16.46,0q.09-39.15.18-78.3C1188.71,736,1188.78,731.17,1188.82,726.35Z"/><path class="cls-11" d="M700.6,323.27c6,3.66,9.42,8.61,8.2,16.06-.7,4.31-2.9,5.49-7,4.59-1.95-.42-4.08-.05-6.13,0q.52,3,1.07,5.91c.32,1.77,1.17,3.64.85,5.28s-1.45,3.86-2.85,4.58c-1,.52-3.23-.74-4.61-1.66s-2.25-2.31-4-4.2c-1.54,3-2.47,5.63-4.1,7.73a89.17,89.17,0,0,1-7.23,7.46c-4-2-4.93-5.06-3.3-9.14,1.27-3.2,2.37-6.47,3.44-9.42-.61-.65-.8-1-1.05-1.1-3.23-.65-7.11-1.69-6.24-5.51.52-2.3,3.94-4.35,6.49-5.67,2.7-1.39,5.91-1.78,9.94-2.89-2.32-1.77-3.76-2.77-5.09-3.9-4.3-3.69-3.47-8.91,2.06-10.14,3.74-.84,7.84-.05,11.77,0l1.85.34,2,.47Z"/><path class="cls-11" d="M1210.78,186.24c-2.29.36-4.61.61-6.85,1.14-1,.24-2.36.82-2.73,1.63-.28.61.62,1.91,1.23,2.74,1.64,2.28,3.92,4.26,4.94,6.76a6.75,6.75,0,0,1-1,5.8c-.71.85-3.56.16-5.35-.26-1.35-.32-2.55-1.29-4.61-2.4-.59,4.23-.93,7.77-1.61,11.26-.58,3-.61,6.83-5.2,6.43-4-.35-4.89-3.39-4.85-6.88s0-6.88,0-10.32l-1.29,1.14c-2.68-1.6-6.74-2.59-7.75-4.91-2-4.52,2.67-6.4,5.73-8.6,1.93-1.38,3.79-2.85,6.36-4.79-2.83-.9-4.58-1.31-6.21-2-5.49-2.34-6.14-6.61-1.33-10.25,2.2-1.66,5-2.52,7.54-3.74l1.08.22,7.82-1.11.87-1.71,3.11,2.16C1209.54,169.13,1214.23,179.34,1210.78,186.24Z"/><path class="cls-6" d="M781,598.83c1.24,9.26,1.8,18.69,3.92,27.75s5.87,17.87,8.8,26.81c.29.89-.11,2-.19,3-8.1-7.1-16.25-14.14-24.25-21.35-1.37-1.24-2.07-3.23-3.08-4.87-1.67-9.19-3.56-18.35-4.93-27.59-.64-4.37-.31-8.87-.41-13.31Z"/><path class="cls-11" d="M752.79,106.27c10.74.5,18,5.73,22,15.76,2,4.88,4.71,9.46,7.42,14.82-8.53,2.08-17,1.81-25.44.47-15.23-4.95-13.73-17.88-13.68-29.67Z"/><path class="cls-12" d="M700.6,323.27,696.69,322c2.19-2.75,4.43-5.46,6.55-8.26,2.49-3.29,4.87-6.65,7.3-10-2.33,4.63-4.64,9.26-7,13.88C702.6,319.56,701.58,321.41,700.6,323.27Z"/><path class="cls-12" d="M1200.67,168.55l-3.11-2.16q1.61-9.82,3.22-19.66l1.9.31c-.77,4.34-1.76,8.65-2.24,13C1200.13,162.85,1200.57,165.72,1200.67,168.55Z"/><path class="cls-12" d="M1196.69,168.1l-7.82,1.11Z"/><path class="cls-12" d="M694.68,321.57l-1.85-.34Z"/><path class="cls-13" d="M1507.79,774.22l-13-.09c-.34-4.45-1-8.9-1-13.35,0-185.21,0-10.42,0-195.63a35.39,35.39,0,0,0,0-4c-.34-3.09,1-4.33,4-3.92.33,3.62.64,7.24,1,10.85a163.44,163.44,0,0,0,15.15,54.28c13.7,29,34.41,52.35,59.51,71.81,22.21,17.22,46.3,31,74.45,36.34,2.82.54,4.17,0,5.83-2.06,7.93-10,16.3-19.62,24-29.79,5.54-7.36,10.24-15.35,15.31-23.06a56.85,56.85,0,0,0,26.12,6.82c-1.18-5.75-1.84-11.24-3.49-16.42-1.82-5.72-4.54-11.15-6.87-16.71,6.58-13.69,12.45-27.76,11.82-43.22-.35-8.49-2.47-17-4.56-25.32-5-19.91-10.1-39.81-15.84-59.52-7.26-25-14.66-49.88-18.05-75.73-1.28-9.8-.61-19.7,7.68-26.58,6.87-5.69,15.22-6,24-4.88,20.13,2.46,39,8.7,57.45,16.81,7,3.09,10.88,7.41,9.53,15.34q-3.11,9.41-6.22,18.81l-2.9,2.21c-3.72,0-7.73,1-11.09-.08-6.57-2.09-12.74-5.41-19.14-8-5.15-2.11-10.42-3.94-15.63-5.9L1718.54,441l-1.67.95c1.33,3.84,3.11,7.58,3.92,11.53a170.88,170.88,0,0,0,15.93,45.42,39.64,39.64,0,0,0,3.07,4.38l0-.05c0,.66,0,1.32,0,2,3.29,6.8,5.8,13.87,12.64,18.56,13.78,9.46,27.1,19.59,38.47,32,1,1.14,2.71,1.72,4.08,2.55.35,1.73.24,3.75,1.12,5.14,11.7,18.31,29.53,23.48,50.86,19.92l6.7-.27,18.91,2.19,1.29,6.69c2.45,6.67,4.33,13.62,7.46,20,6.4,12.93,16.81,22.13,29.34,29a25,25,0,0,0-3.31,1c-14.24,6.74-28.71,13.07-42.64,20.4-20.18,10.63-38.34,24-51.56,43-5.79,8.34-11,17.12-16.42,25.71.36.53.71,1.07,1.06,1.61l47.92-12.61a10.34,10.34,0,0,0,1.48-.21,449.93,449.93,0,0,0,100-45c6.86-4.17,13.15-9.3,19.69-14l2.13-1.74a37.6,37.6,0,0,0,5.64-2.93,294.75,294.75,0,0,0,48.32-44.86c2.63-3.1,4.6-6.76,6.88-10.17,1.36-1.41,3.07-2.62,4-4.26,5.44-9.24,11.23-18.33,15.91-27.94,11.48-23.58,15.25-48.36,9.82-74.26,5.61-6.67,6.35-14.12,3.68-22.49h-11.46c-4.48-7.67-8.79-15.45-13.5-23-6.37-10.19-13.06-20.19-19.61-30.26a25.06,25.06,0,0,1,1.35-2.63q28.08-42.65,56.19-85.27c4.29-6.49,4.33-6.45-2.37-10.86q-41.61-27.37-83.23-54.76c-1.51-1-3.2-1.7-4.81-2.54,1.18-5.66,2-11.43,3.63-17,5.49-18.42,11.29-36.76,17-55.12,4.33-14,7.69-28.17,6.18-43-.29-1.59-.49-3.2-.87-4.77-1.77-7.12-3.65-14.19-10-18.92l-1.27,0c-1.67-2.66-2.78-6.05-5.12-7.84-6.59-5-13.69-9.45-20.58-14.11l-2-1c-7.78-3.3-15.45-6.92-23.4-9.75-3.14-1.12-6.91-.48-10.39-.64-1.87-.86-3.7-2.37-5.61-2.48a125.2,125.2,0,0,0-52.68,8,177.87,177.87,0,0,0-43.19,24.35c-15.42,11.55-28.81,25.13-41,39.78-16.87,20.21-30.26,42.75-41.58,66.53-3.46,7.28-7.34,14.36-11,21.53l-10,13.64a1.27,1.27,0,0,0-.17.83,12.63,12.63,0,0,0-2.79,1.88,216,216,0,0,1-38.5,35c-.68.49-1,1.54-1.42,2.33l-1.48.17c-3.71,2.36-7.5,4.6-11.11,7.1-3,2.1-5.85,4.5-8.76,6.76-1.41.41-3,.53-4.22,1.27-24.73,15.11-49.84,29.66-74,45.65a197.26,197.26,0,0,0-56.55,56.64c-3.58,5.46-6.1,11.62-9.11,17.46l-28.9,21c-4.71-.83-3-4.59-3-7.21-.07-191.25-.06-192.49-.06-383.74,0-5.54-.86-11.26,3-16.1l12-.09c7.49,0,15,.08,22.48.08h582c2.17,0,4.33,0,6.5-.07,8,.68,16.19-1.34,23.91,2.94,9.71,5.4,15,13.16,15.15,24.33a40.21,40.21,0,0,0,.91,5.82,65.22,65.22,0,0,0-.91,7.83c0,386.56,0,223.12,0,609.68q0,19.75.07,39.49c.79,11.45-2.21,21.16-12.33,27.85-7,4.62-14.7,5.5-22.75,5.16Z"/><path class="cls-13" d="M1092.68,291.19c6.75.41,6.28,6.12,7,10.32,2.95,17.72,4.57,35.71,8.5,53.2,3.3,14.68,10.26,28.31,18.68,40.91,4.11,6.17,9,11.85,13.45,17.77,6.33,8.35,14,14.09,25.21,12.85,1.32,3.64,1.69,8.2,4.15,10.74,5.64,5.81,12.33,10.59,18.52,15.87,5.81,5,11.82,9.73,17.21,15.12,4.19,4.2,6.3,9.83,3.62,15.58-6.07,13-7.27,26.56-5,40.43,3.26,20.13,9.53,38.81,27.65,51-4,3.08-.54,5.75.84,8,2,3.38,5.11,6.12,7.33,9.4,2.83,4.18,2,7.08-2.69,9.09a43,43,0,0,1-9,2.69c-4.46.84-8,2.36-7.66,7.68a36.56,36.56,0,0,1-5.65,1.3c-17.39,1.08-34.78,2.69-52.18,2.88-16.91.18-33.85-1.12-50.77-1.78-13.2-6.66-17.42-17.45-12.36-33.14,2.69-8.34,6.31-16.37,9.3-24.61,4.93-13.62,4-27.52.46-41.12-4.24-16.11-9.55-31.95-14.21-47.95-4.58-15.73-8.91-31.52-13.41-47.27-.68-2.37-1.74-4.63-2.62-6.94a1.66,1.66,0,0,1-.2-.9c-.19-.67-.37-1.34-.55-2l-.36-2.09c.53-.73,1.65-1.91,1.5-2.11-5.58-7.31-5.64-16.36-7.35-24.71-2.24-10.95-3-22.2-4.41-33.31-1.26-10-2.49-19.93-3.81-29.89-.83-6.2-2.09-12.36-2.59-18.58-.24-3-2.89-7.74,3.42-8.36.82,1,1.58,2.85,2.46,2.9,7.33.47,14.68.78,22,.66C1090.3,294.79,1091.48,292.45,1092.68,291.19Z"/><path class="cls-13" d="M757.9,583.27c-5.86-4-7.43-10.58-9-16.67-2.9-11.51-5.84-23.17-6.9-34.93-1.83-20.43-3.06-41-3-61.5,0-26.37,3.32-52.38,12.35-77.5,5.13-14.3,11.33-27.93,20.45-40,2.4-3.2,6.65-5,10.06-7.45,1.92.37,4,.4,5.74,1.15,6.77,2.86,13.45,5.94,20.16,8.94l24.94,20.66c7,8.61,13.69,17.6,16.54,28.46a215.67,215.67,0,0,1,6.33,32.36c1.08,10.34.29,20.88.32,31.33-5-1-11.36,0-11.2-4.93-.36,3.14-1.07,9-1.69,14.92-.1.95.36,1.94.36,2.91,0,7.6,11.54,13.14,21.45,14.14,2.26,14,5,27.9,6.66,42,1.63,13.42,2.34,27,3.25,40.46.17,2.58-.62,5.22-1,7.84l-20.14,9.83-17.87-28c6.88-9.82,6.78-20.38-.76-27.56,3.36,8.54,1.58,16.26-3.24,23.5-6.9,6-14.67,10-24,10.29-9.82,0-15.68-5.47-19-14.09-2.66-6.8-5.48-13.57-7.46-20.57-4.85-17.1-8.46-34.5-8.27-52.35.19-17.59,1.2-35.18,1.72-52.77.1-3.46-.95-7-.59-10.38,1-9.55,3.74-18.45,12-24.69a25.4,25.4,0,0,0-16,9.13c-7.6,8.84-9.84,19.71-10,30.64-.34,19.27.17,38.59,1,57.85.6,13.12,1.29,26.11-1,39.19-1.76,10.15.53,19.23,10.16,25.06a32.13,32.13,0,0,1,3.13,2.48c2.18,1.75,1.9,3.32-.4,4.66-2.59,1.51-5.24,2.91-7.8,4.46C761,574.63,758.15,578.13,757.9,583.27Z"/><path class="cls-5" d="M1005.06,646.19C998.31,627.44,990,610,978.57,594.44c-11.28-15.39-23.45-30.12-35.46-45.43,5.87-5.25,13.54-6,21.63-4.14,12.75,3,22.93,10.74,32.14,19.39s16.9,18.33,25.55,27.3c5,5.15,4.36,10.86,3.49,17.13-1.81,13.07-6.06,24.83-16.08,33.92C1008.52,643.81,1007,644.76,1005.06,646.19Z"/><path class="cls-5" d="M940.18,552.6c29.67,30.35,53.23,63.94,65.42,106.62-5.79-1-10.55-1.15-14.93-2.55-10.61-3.4-19.74-9.5-27.92-17-1.06-1-2.09-2.9-1.89-4.2,2.43-16.1-6.19-27-17.32-36.46C930.92,588.28,928.75,565.12,940.18,552.6Z"/><path class="cls-8" d="M1092.68,291.19c-1.2,1.26-2.38,3.6-3.6,3.62-7.33.12-14.68-.19-22-.66-.88,0-1.64-1.89-2.46-2.9,1.49-27.62-1.22-55-5-82.3,0-.53,0-1.07,0-1.61-.54-5.22-1-10.46-1.65-15.67-.43-3.48.77-6.23,4.1-6.94,9.61-2,19.28-3.24,28.42,2l.39,5c-1.48,10.29-3.39,20.54-4.33,30.87-.81,9-1.35,18.13-.52,27.07,1.21,13.12,3.75,26.11,5.76,39.15A13.91,13.91,0,0,0,1092.68,291.19Z"/><path class="cls-14" d="M1111.8,614.23c16.92.66,33.86,2,50.77,1.78,17.4-.19,34.79-1.8,52.18-2.88a36.56,36.56,0,0,0,5.65-1.3c-.31-5.32,3.2-6.84,7.66-7.68a43,43,0,0,0,9-2.69c4.64-2,5.52-4.91,2.69-9.09-2.22-3.28-5.28-6-7.33-9.4-1.38-2.28-4.86-5-.84-8,4.63,1.32,9.17,3.73,14.13,1.22.29,8.57,4.71,15.38,9.46,22,1.9,2.68,3.88,5.31,5.82,8-.23,4.84-1.65,9-6.12,11.69a4.42,4.42,0,0,0-2,3.13c.1,5.92-3.09,8.68-8.49,9.67-.4.07-.7.66-1,1-9.61,0-19.24.27-28.84-.19-22.22-1.08-44.45-2.24-66.63-4-10.25-.78-20.38-3-30.57-4.44a7.38,7.38,0,0,0-2.35.44Z"/><path class="cls-9" d="M934.83,667.14c0,.33.12.77-.05,1-7.16,9,.23,15.75,3.44,23.13,1.19,2.74,2.59,5.39,3,8.52-6.81-4.73-8.19-12.85-12.91-19.74-8.13,13.28-11.08,27.55-11.65,42.51-9.52-9.45-15.51-20.91-18.89-33.77-.31-1.15.75-3.35,1.84-4.09,7.89-5.3,13-12.58,16-21.48l.11-2.23-.82-.15c-.35.81-.7,1.61-1.06,2.42-4.43,7.84-8.18,16.27-17.2,20.35-.73-1.72-1.29-3.05-1.86-4.37a12.13,12.13,0,0,0,0-2,138,138,0,0,1,1-49c1.14-6,2.06-12,3.08-18l0,.07,2.88-5.3c9.9,3.81,15.57,16.17,11.87,26.3-2.35,6.44-4.72,12.9-2.51,19.78,1.08,3.38,3,6.49,4.39,9.29Z"/><path class="cls-8" d="M863.55,280.33a53.63,53.63,0,0,0-7.54,1.73c-5,1.88-9.64,4.47-14.65,6.1-10.22,3.32-17.49.16-22.08-9.53-2.82-5.95-5.06-12.17-7.56-18.27,1.3-7.72,2.61-15.44,7.09-22.15l4-6c14.17,5.62,24.68,15.75,33.69,27.61,3.29,4.33,6,9.11,8.94,13.68C867.37,276.5,866.83,278.79,863.55,280.33Z"/><path class="cls-12" d="M950.85,364.14q-7.83-11.2-15.64-22.42,14-24.11,28-48.18c.42-.71,1.47-1.06,2.23-1.59l17.35,18.27q-4.5,7-9,14c-4.27,7.86-8.44,15.78-12.86,23.55C957.73,353.33,954.21,358.69,950.85,364.14Z"/><path class="cls-15" d="M832.69,375.94l-24.94-20.66c-.78-1.62-1.65-3.2-2.33-4.86-5.16-12.57-4.21-23.25,9.35-29.65,5.78-2.73,10.33-6.52,12.77-12.55,4.8,4.9,10.16,8.61,17.47,8.14-3.55,9.56-7.68,19-10.5,28.73A65.15,65.15,0,0,0,832.69,375.94Z"/><path class="cls-9" d="M889.63,677.13c-7.24-2.46-13-7-18.15-12.54-5-5.33-5.49-11.35-4.3-18,.21-1.13.39-2.26.58-3.39.68-2.63,1.37-5.26,2-7.89l7.83-18.27c2.79-3.41,5.28-7.13,8.45-10.14s7.61-4.29,12.68-3.23v6.56l0-.07c-.65,1-1.64,1.83-1.91,2.88-5.06,19.78-7.12,39.8-4.46,60.15C892.76,675.59,892.4,677.14,889.63,677.13Z"/><path class="cls-12" d="M933.84,339.61c-3.43-4.45-7-8.8-10.17-13.43-.7-1-.46-3.24.14-4.53,4.44-9.46,9.08-18.83,13.64-28.23,1.48-3,3.84-5.7.91-9.51-1.59-2.06,5-11.52,8.25-12.48q8.31,9.21,16.6,18.44c-1.08,1.87-2.14,3.74-3.24,5.6Z"/><path class="cls-16" d="M950.85,364.14c3.36-5.45,6.88-10.81,10-16.37,4.42-7.77,8.59-15.69,12.86-23.55l27.19,2c-.32.75-.6,1.53-1,2.26q-9.76,19.34-19.56,38.66Z"/><path class="cls-11" d="M1078.76,412.3a1.66,1.66,0,0,0,.2.9c0,2.16-.12,4.32-.11,6.48,0,7.43-3.1,13.38-9.38,17.09-6.52,3.85-13.5,6.93-20.72,10.57-2.87-11-3.25-21.57,2.27-31.53,2.86-5.16,8.12-7.25,13.88-7.57,4.3-.23,8.63,0,12.95,0,.12.7.24,1.39.35,2.09S1078.57,411.63,1078.76,412.3Z"/><path class="cls-16" d="M1022.86,330.31c-6.18,12.26-12.29,24.55-18.63,36.73a5,5,0,0,1-3.91,2c-6.11-.28-12.19-1-18.28-1.49l21-40.61c5.52.42,11.05.73,16.54,1.32C1020.74,328.44,1021.77,329.62,1022.86,330.31Z"/><path class="cls-2" d="M1003.05,327,982,367.6l-1.62-.42q9.78-19.32,19.56-38.66c.37-.73.65-1.51,1-2.26,1.78-3.52,3.72-7,5.24-10.6.39-.92-.52-2.4-.84-3.62-5-5.57-9.9-11.21-15-16.66a7.81,7.81,0,0,0-4.54-2.54c-6.78-.52-13.59-.63-20.39-.89-.76.53-1.81.88-2.23,1.59q-14,24.06-28,48.18l-1.37-2.11L960,295.47c1.1-1.86,2.16-3.73,3.24-5.6,6.53-.11,13.45,2.38,18.93-3.41l-10.9-13.92,2.41.67,14,16.58c.42-6.12.74-10.88,1.06-15.63,2.07-6.44,3.57-13.14,6.3-19.28,8.55-19.18,23.06-32.28,42.59-39.78,7.27-2.79,14.69-5.18,22-7.76,0,.54,0,1.08,0,1.61-12,5.05-24.79,8.87-36,15.42-18.73,11-29,28.55-32.69,49.87-.51,4.9-1,9.8-1.54,14.82l9.33-1.06c-.74,1.64-1.08,2.39-1.83,4.07h14l2.24,1.56H991.12c6.29,6.91,12.06,13.26,17.84,19.6Z"/><path class="cls-11" d="M864.8,495.13c-9.91-1-21.46-6.54-21.45-14.14,0-1-.46-2-.36-2.91.62-5.9,1.33-11.78,1.69-14.92-.16,4.91,6.18,3.91,11.2,4.93a18.45,18.45,0,0,1,10.06,15.46c.32,3.58,1.4,7.1,2.2,11Z"/><path class="cls-16" d="M1009,313.23c-5.78-6.34-11.55-12.69-17.84-19.6h22.07l18.69,21.6Z"/><path class="cls-2" d="M877.64,617.07l-7.83,18.26c0-2,.13-4,0-6-.33-5.68-.2-11.46-1.3-17-1.29-6.53-5.11-9-11.66-9.17l-3.27-8,20.14-9.83C870.92,596.45,872.67,607,877.64,617.07Z"/><path class="cls-16" d="M971.24,272.54l10.9,13.92c-5.48,5.79-12.4,3.3-18.93,3.41q-8.3-9.22-16.6-18.44Z"/><path class="cls-15" d="M822.8,232.21l-4,6c-4.48,6.71-5.79,14.43-7.09,22.15-3.28-4-6.54-8.11-9.85-12.13-2.87-3.49-2.8-7.46-1-11.13,1.52-3.21,4-6,6-8.95Z"/><path class="cls-8" d="M1009,313.23l22.92,2c-.55,4.27-.51,8.76-2,12.69-.54,1.47-4.6,1.63-7.05,2.39-1.09-.69-2.12-1.87-3.27-2-5.49-.59-11-.9-16.54-1.32Z"/><path class="cls-16" d="M1011,292.07H997c.75-1.68,1.09-2.43,1.83-4.07l-9.33,1.06c.52-5,1-9.92,1.54-14.82a9,9,0,0,1,8.75,4.22C1003.14,283.24,1007.19,287.56,1011,292.07Z"/><path class="cls-2" d="M1090.94,191.76l-.39-5c-2.12-4.49-4.22-9-6.39-13.45-2.61-5.37-6-10.48-7.8-16.1-4.15-12.77-.85-21.21,10.21-28.7l11.1-.31-.76.68-6.88,1c-9.58,2.48-15.49,11.23-13.2,21.69,1.41,6.47,4.74,12.57,7.53,18.68,1.85,4.05,4.81,7.64,6.23,11.8C1091.61,184.93,1090.89,188.48,1090.94,191.76Z"/><path class="cls-16" d="M988.75,274.16c-.32,4.75-.64,9.51-1.06,15.63l-14-16.58Z"/><path class="cls-9" d="M964.77,727.22a59.58,59.58,0,0,1-23-24.89l1.37-1.27c2.33,2.69,4.57,5.46,7,8.05,4.52,4.82,9.16,9.51,13.7,14.3a8.79,8.79,0,0,1,1.14,2.12Z"/><path class="cls-6" d="M1245.75,576.16c-5,2.51-9.5.1-14.13-1.22-18.12-12.15-24.39-30.83-27.65-51-2.24-13.87-1-27.42,5-40.43,2.68-5.75.57-11.38-3.62-15.58-5.39-5.39-11.4-10.16-17.21-15.12-6.19-5.28-12.88-10.06-18.52-15.87-2.46-2.54-2.83-7.1-4.15-10.74l14.36-19.09c3.28-3.68,6.9-7.13,9.79-11.11,4.85-6.7,3.77-12.71-2.69-18.25-10.55-8.07-18.27-18-20.24-31.54a4.78,4.78,0,0,0,.15-1.48c-5-24,23.88-40.74,42.61-35a225.2,225.2,0,0,1,37.85,15c12.63,6.55,16.79,19.57,17.85,32.78,1.14,14,1.66,28.31.51,42.32-1.54,18.84,2,36.5,7.29,54.35,3.91,13.1,6.2,26.75,8.23,40.3,1.81,12-1,23.15-10.74,31.57-1.92,2.46-4.49,4.65-5.65,7.43-3.67,8.85-6.51,18.05-10.28,26.85C1252.18,565.88,1248.71,570.91,1245.75,576.16Z"/><path class="cls-13" d="M1245.75,576.16c3-5.25,6.43-10.28,8.79-15.79,3.77-8.8,6.61-18,10.28-26.85,1.16-2.78,3.73-5,5.65-7.43a40.27,40.27,0,0,1,3.81,5.3c7.76,15.24,15,30.76,23.2,45.75,10.66,19.5,22.18,38.52,33,57.92,1.16,2.08.23,5.33.27,8l-14,16.1c-9.7,1.59-15-5.61-20.27-11.3-10.06-10.88-19.1-22.7-28.61-34.1-2.19-2.61-4.54-5.09-6.81-7.63-1.94-2.66-3.92-5.29-5.82-8C1250.46,591.54,1246,584.73,1245.75,576.16Z"/><path class="cls-8" d="M1166.72,346.25c2,13.57,9.69,23.47,20.24,31.54,0,.66-.12,1.33-.13,2-.3,13.22-3.87,17.46-17.2,20.58-.73.17-1.25,1.24-1.87,1.9-5.87-3.92-8.44-9.38-8-16.45C1160.5,372.34,1162.24,359.06,1166.72,346.25Z"/><path class="cls-11" d="M1352.81,556.93c-4.18,1.6-8.27,3.53-12.92,1.47-4.9-2.15-5.52-4.16-2.44-8.49a41.78,41.78,0,0,0,2.18-4.14c-2.7-.41-4.92-.29-6.68-1.13-2-1-3.64-2.77-5.44-4.22,1.51-1.26,3-2.55,4.54-3.76a16.08,16.08,0,0,1,2.52-1.18c-1.89-2.42-4-4.36-5.1-6.77-.9-2.08-1.61-5.56-.53-6.88,2.11-2.6,4.84-.67,6.76,1.37s3.4,4,5.17,6.07c1.2-1.07,1.61-1.66,2.17-1.89,1.68-.68,4.13-2.21,5-1.6a7.45,7.45,0,0,1,2.48,5.27c.08,2.85-.78,5.73-1.34,9.28a14.4,14.4,0,0,1,2.63-1.14c2.43-.32,4.87-.55,7.31-.81.23,2.66,1.33,5.65.49,7.92-1.2,3.26-3.81,6-5.82,9Z"/><path class="cls-15" d="M1167.76,402.26c.62-.66,1.14-1.73,1.87-1.9,13.33-3.12,16.9-7.36,17.2-20.58,0-.66.08-1.33.13-2,6.46,5.54,7.54,11.55,2.69,18.25-2.89,4-6.51,7.43-9.79,11.11Z"/><path class="cls-7" d="M1090,129.8l6.88-1c3.46,3.86,6.93,7.71,10.48,11.65l-16,8.4C1091,142.62,1090.49,136.21,1090,129.8Z"/><path class="cls-12" d="M1352.81,556.93l1-1.67L1364,569.78l-1.19.9C1358.69,566.74,1355.94,561.68,1352.81,556.93Z"/><path class="cls-6" d="M1125.35,716.35c14,6.53,27.43,9.24,42.67,5.51C1154.68,732.75,1133.27,732.13,1125.35,716.35Z"/><path class="cls-6" d="M1256.78,712.22c-4.72,10.69-20.81,16.31-33.49,3.19,12.66,4.43,23.33,2.39,33.5-3.18Z"/><path class="cls-6" d="M1125.45,717.06l-.06-.26c.09,0,.21,0,.26.08a1.83,1.83,0,0,1,.14.35Z"/><path class="cls-6" d="M1256.79,712.23l.4-.43c0,.09,0,.21-.07.26a1.33,1.33,0,0,1-.34.16Z"/><path class="cls-12" d="M567.74,393.25l14-15.39c-.8,1.73-1.61,3.45-2.41,5.17l-9.76,12.22Z"/><path class="cls-14" d="M757.9,583.27c.25-5.14,3.07-8.64,7.27-11.18,2.56-1.55,5.21-3,7.8-4.46,2.3-1.34,2.58-2.91.4-4.66a32.13,32.13,0,0,0-3.13-2.48c-9.63-5.83-11.92-14.91-10.16-25.06,2.26-13.08,1.57-26.07,1-39.19-.87-19.26-1.38-38.58-1-57.85.2-10.93,2.44-21.8,10-30.64a25.4,25.4,0,0,1,16-9.13c-8.26,6.24-11,15.14-12,24.69-.36,3.4.69,6.92.59,10.38-.52,17.59-1.53,35.18-1.72,52.77-.19,17.85,3.42,35.25,8.27,52.35,2,7,4.8,13.77,7.46,20.57,3.36,8.62,9.22,14.09,19,14.08l15,27.83L781,598.83l-20.14-9.56Q759.39,586.27,757.9,583.27Z"/><path class="cls-8" d="M827.54,308.22c-2.44,6-7,9.82-12.77,12.55-13.56,6.4-14.51,17.08-9.35,29.65.68,1.66,1.55,3.24,2.33,4.86-6.71-3-13.39-6.08-20.16-8.94-1.77-.75-3.82-.78-5.74-1.15q1.49-10,3-19.94c12.18-5,17.52-16.48,14.21-26.1a105.7,105.7,0,0,1-3-11.54c-.82-3.71.59-5.73,4.65-5.62a14,14,0,0,1,11.2,5.61C817.17,294.42,822.33,301.34,827.54,308.22Z"/><path class="cls-13" d="M1071.18,13.18c-11.86,7.74-20.41,18-24.1,31.8a50.89,50.89,0,0,0-1.24,12.29c0,3.06-1,4.27-4.08,4-1.82-.16-3.67,0-5.5,0-6.71,0-7.92-1.26-6.27-7.93,3.35-13.54,10.28-25,22-32.71,5.67-3.74,12.14-6.24,18.26-9.31Z"/><path class="cls-17" d="M894.79,679.22c.57,1.32,1.13,2.65,1.86,4.37,9-4.08,12.77-12.51,17.2-20.35l1.77,0c-3,8.9-8.07,16.18-16,21.48-1.09.74-2.15,2.94-1.84,4.09,3.38,12.86,9.37,24.32,18.89,33.77.35,1.2.69,2.39,1,3.58-4-4.5-8.5-8.66-11.89-13.58-6.45-9.36-10.24-19.95-12.36-31.12Z"/><path class="cls-8" d="M822.71,601.29l-15-27.83c9.34-.3,17.11-4.27,24-10.28l4,4.06,17.87,28,3.27,8c.48,9.18-5.71,19.18-13.07,21.09Z"/><path class="cls-6" d="M843.79,624.3c7.36-1.91,13.55-11.91,13.07-21.09,6.55.14,10.37,2.64,11.66,9.17,1.1,5.53,1,11.31,1.3,17,.12,2,0,4,0,6-.68,2.64-1.37,5.27-2,7.9-3.63,1.6-2.86-.63-2.62-2.81.84-7.79,1.53-15.59,2.27-23.38l-1.7-.43c-2.33,3.59-4.49,7.29-7,10.73-3.73,5.06-8.48,8.91-14.87,10-2.44.41-5,.07-8.76.07Z"/><path class="cls-1" d="M894.79,679.22l-1.29,2.2-3.91-3.13,0-1.16c2.78,0,3.14-1.54,2.82-3.91-2.66-20.35-.6-40.37,4.46-60.15.27-1.05,1.26-1.92,1.91-2.88-1,6-1.94,12-3.08,18a138,138,0,0,0-1,49A12.13,12.13,0,0,1,894.79,679.22Z"/><path class="cls-1" d="M1496.79,542.23l1-8q2-17,4-34c4.59,6.09,9.15,12.19,13.76,18.26,5.59,7.34,5.7,7.46,13.24,2,14.69-10.55,29.26-21.25,43.87-31.91,2.11-1.54,4-3.08,1.76-6.06-11.11-15.09-22-30.34-33.26-45.33-5.09-6.78-5.37-6.55-12.74-1.42a24.59,24.59,0,0,1-2.64,1.4c3-5.84,5.53-12,9.11-17.46a197.26,197.26,0,0,1,56.55-56.64c24.15-16,49.26-30.54,74-45.65,1.22-.74,2.81-.86,4.22-1.27,1.38,2.83,2.66,5.7,4.15,8.47,10.68,20,27.4,32.63,48.6,40.57-.26-2-.45-3.55-.64-5.06,2.81,2.59,5.19,6.49,8.48,7.53,11.62,3.67,23.71,5.62,35.9,4.27,5.28-.59,10.54-2.68,15.43-4.92a8.8,8.8,0,0,0,5.07-8.38c-10.56-2.5-20.74-4.81-30.86-7.37-2.45-.62-4.69-2.06-7-3.13,3.67.78,7.33,1.55,11,2.35,9.14,2,18.28,4,27.77,6.08-1.38-14-9-21.29-21.73-22.32-8.18-.67-15.75-2.74-20.25-10.75-.66-1.17-3-1.81-4.62-1.94-8.68-.7-16.83,1.4-24.62,5.13l-.72-.73c8.2-6.93,18.4-5.73,27.4-6.31,1.14-7.79,2.17-14.92,3.21-22l10.66-3.28,2.13.7c6.35.23,8.82,4.93,10.28,9.87,1.8,6.08,5.6,9.49,11.42,11.13l2.09.21,3.24-1,1.22-.41c5-.79,6.37-5,6.25-8.73-.36-11-3.4-21.35-10.65-30.05l-.83-1.8-1.21-1.11.08,0a29.08,29.08,0,0,0-2.53-4.59c-8.92-11.09-20.55-17.62-34.5-20.1,3.68-7.17,7.56-14.25,11-21.53,11.32-23.78,24.71-46.32,41.58-66.53,12.22-14.65,25.61-28.23,41-39.78a177.87,177.87,0,0,1,43.19-24.35,125.2,125.2,0,0,1,52.68-8c1.91.11,3.74,1.62,5.61,2.48a59.13,59.13,0,0,0-4.27,4.1q-8.39,9.72-16.58,19.59c-.78.93-2.54,2.63.71,2.76,0,.61,0,1.21,0,1.81-1.79,1.13-4.39,1.84-5.27,3.47-7.38,13.61-12.7,28-12.28,43.69.16,6.36,2.61,12.26,9.68,15,.8-1.95,1.43-3.47,2-5l1.81,0-1.45,5.62c11,1.49,21.56-4.08,23.81-13,2.6-10.29,7-18.84,17.7-22.65l2.28.84c4.65,1.16,9.29,2.39,14,3.45,5,1.14,9.94,4.34,13.77,1.48,10.72,2.68,19.31-.15,27.77-4.1,1.51,14.85-1.85,29-6.18,43-5.68,18.36-11.48,36.7-17,55.12-1.65,5.52-2.45,11.29-3.63,17-1.5,1.14-3.4,2-4.42,3.46-3.61,5.16-6.86,10.57-10.33,15.83q-23.31,35.34-46.72,70.6c-2.17,3.26-1.91,5.3,1.38,7.33,5.09,3.14,10.09,6.41,15.07,9.71,24,15.83,47.88,31.72,71.9,47.46,1.65,1.09,4,1.14,6,1.67,6.55,10.07,13.24,20.07,19.61,30.26,4.71,7.52,9,15.3,13.5,23-12.89,4-18.65,19.17-12.28,33.38l20.06-10.89c5.43,25.9,1.66,50.68-9.82,74.26-4.68,9.61-10.47,18.7-15.91,27.94-1,1.64-2.67,2.85-4,4.26a54,54,0,0,1-3.36-4.77c-3.62-6.38-7.13-12.83-10.68-19.25.86-1.35,1.69-2.74,2.61-4.06,4-5.82,8.87-11.26,11.92-17.57a31.07,31.07,0,0,0,2.47-15.15c-.55-7.59-6.17-12.61-11.81-17.08-11.54-9.13-25.09-14.4-39.11-17.64-8.69-2-18-7.92-27.11-.45-2.47-.23-5-.31-7.38-.71-8.8-1.44-17.57-3-26.35-4.51.09-2.6.17-5.2.26-7.8a5.82,5.82,0,0,1-.19-1.47c1.47-11.94.61-23.54-4.6-34.61a4.26,4.26,0,0,1,.39-3.56c2.32-3.32.91-5-2.13-6.63-2.88-1.51-6.11-2.92-8.21-5.26-12.75-14.11-28.55-22.43-47.33-23.93-23.21-1.86-42.9,5.41-56.67,25.3-4.64,1.35-6.17,5.31-7.74,9.23l-14-5.11c1.35-7.93-2.49-12.25-9.53-15.34-18.45-8.11-37.32-14.35-57.45-16.81-8.79-1.08-17.14-.81-24,4.88-8.29,6.88-9,16.78-7.68,26.58,3.39,25.85,10.79,50.76,18.05,75.73,5.74,19.71,10.83,39.61,15.84,59.52,2.09,8.32,4.21,16.83,4.56,25.32.63,15.46-5.24,29.53-11.82,43.22-3.5-1.82-6.88-4.83-10.53-5.22-7.34-.78-11.86-3.58-12.7-11.2a7.76,7.76,0,0,0-1.55-.24,23.75,23.75,0,0,0,.89,4.75c2,4.82,1.54,9.39.07,14.37-2.85,9.61-1.22,18.13,8.06,23.85-5.07,7.71-9.77,15.7-15.31,23.06-7.66,10.17-16,19.82-24,29.79-1.66,2.08-3,2.6-5.83,2.06-28.15-5.36-52.24-19.12-74.45-36.34-25.1-19.46-45.81-42.86-59.51-71.81a163.44,163.44,0,0,1-15.15-54.28c-.36-3.61-.67-7.23-1-10.85l-1-7Zm351.88-327a46.27,46.27,0,0,1,2.19-5.83c1.86-3.56,4-7,6-10.47l-1.56-.91-8.5,15.05c-1.8-.22-3.59-.57-5.39-.64-3.12-.12-6.34-.55-9.32.1a6.93,6.93,0,0,0-4.39,4c-.4,1.29,1.3,3.39,2.37,4.92.76,1.07,2,1.79,3.79,3.3-4,1.07-7.19,1.54-10,2.8-1.56.7-3.4,2.65-3.51,4.16s1.69,3.71,3.12,4.19c3.15,1.05,2.84,2.67,1.84,4.92-.68,1.51-1.37,3-1.93,4.58-1,2.91-1.2,6.15,2.22,7,1.53.38,4.24-1.66,5.55-3.29,1.88-2.33,3-5.3,4.49-8.19a17.8,17.8,0,0,0,2.24,1.58c2,.89,4.06,1.7,6.09,2.54.38-2.42.85-4.83,1.07-7.26.07-.74-.6-1.52-.89-2.3-1.33-3.51,0-4.63,3.51-4,6.23,1.1,7.73-.2,7.42-6.47C1854.84,220.59,1853,217.08,1848.67,215.25ZM1613.42,636.56c.81-.78,2.34-1.69,3-3,1-1.89,1.21-4.12,1.89-6.17,8.31-25.05,16.53-50.13,25.11-75.09,1.51-4.4.27-5.69-3.66-7q-40-13.08-80-26.54c-3.53-1.18-5.06-.14-6.2,3.3q-13.24,40.25-26.82,80.37c-1.25,3.7-.54,5.27,3.21,6.5,26.54,8.68,53,17.55,79.53,26.36Zm304-411.58-7.57,6.2c-12.79,10.61-25.54,21.25-38.38,31.79-3,2.42-3.09,4.17-.45,7.27,11.55,13.51,22.8,27.27,34.09,41,4,4.9,4.06,5,8.87,1.06,13.7-11.31,27.35-22.7,41.07-34,3.05-2.51,3.36-4.58.61-7.85-11.89-14.08-23.49-28.41-35.23-42.63A34.27,34.27,0,0,0,1917.47,225Zm-8.77,157.59c1.43-16.13,2.65-31.3,4.17-46.45.44-4.38-1.72-5.48-5.33-5.81q-20.79-1.94-41.56-4c-2.41-.24-4.21,0-4.47,3.08-.43,4.94-1.2,9.85-1.68,14.79-1,9.89-1.74,19.8-2.8,29.68-.3,2.87.08,4.2,3.4,4.45,9.57.73,19.12,1.92,28.68,2.8C1895.36,381.72,1901.62,382.06,1908.7,382.57Zm-277.77,34.56c1,2.39,1.6,4.71,2.89,6.56.76,1.09,2.62,1.43,4,2.1.62-1.36,1.82-2.77,1.74-4.09a36.42,36.42,0,0,0-1.61-6.73l6.15-2.22-5.77-8.45a10.15,10.15,0,0,1,1.32-1.16c3.83-2.65,4-5.27.14-7.92-1.55-1.06-3.65-1.33-5.51-1.92-1.54-.48-3.11-.9-4.71-1.35,0,.31.3,1.21,0,1.44-1.74,1.46-4,2.5-5.33,4.23-1.51,1.92-2.25,4.44-3.33,6.7,2,.68,4,1.35,6,2.06.26.09.46.38.93.79a63.85,63.85,0,0,0-3.39,5.94C1622.74,417.06,1625.06,418.65,1630.93,417.13Z"/><path class="cls-18" d="M2018.68,419.05c-2-.53-4.34-.58-6-1.67-24-15.74-47.94-31.63-71.9-47.46-5-3.3-10-6.57-15.07-9.71-3.29-2-3.55-4.07-1.38-7.33q23.49-35.2,46.72-70.6c3.47-5.26,6.72-10.67,10.33-15.83,1-1.47,2.92-2.32,4.42-3.46,1.61.84,3.3,1.55,4.81,2.54q41.64,27.36,83.23,54.76c6.7,4.41,6.66,4.37,2.37,10.86q-28.12,42.62-56.19,85.27A25.06,25.06,0,0,0,2018.68,419.05Zm-9-102.92a10.69,10.69,0,0,0,2.6-1.94,98.28,98.28,0,0,0,7.58-11.64c.58-1.13-.61-4.17-1.88-5.07-8.67-6.1-17.61-11.82-26.38-17.78-2.5-1.69-4.3-1.18-5.86,1.1-2.15,3.15-4.19,6.37-6.39,9.49-2,2.86-1.8,4.93,1.35,7,8.77,5.65,17.39,11.54,26.09,17.32C2007.6,315.11,2008.52,315.51,2009.67,316.13Zm-67.76,32.77c-1,1.1-2.77,2.16-2.75,3.19a6,6,0,0,0,2.15,4.3c14.42,9.72,29,19.27,43.49,28.84,8.29,5.46,16.61,10.88,24.9,16.33,2.25,1.48,4.91,2.76,6.2-.42.53-1.29-1.22-3.9-2.51-5.43-1.11-1.32-3.07-1.89-4.59-2.89q-31.33-20.68-62.66-41.4C1944.92,350.61,1943.62,349.91,1941.91,348.9Z"/><path class="cls-5" d="M1721.75,360.19c.19,1.51.38,3,.64,5.06-21.2-7.94-37.92-20.61-48.6-40.57-1.49-2.77-2.77-5.64-4.15-8.47,2.91-2.26,5.73-4.66,8.76-6.76,3.61-2.5,7.4-4.74,11.11-7.1l1.6,2.44,3.45,5.66.86,1.14,1.81,2,.67-.71-1.63-2.1c-.31-.34-.61-.7-.92-1.05q-1.66-2.83-3.35-5.67c-.33-.62-.67-1.23-1-1.85.46-.79.74-1.84,1.42-2.33a216,216,0,0,0,38.5-35,12.63,12.63,0,0,1,2.79-1.88l1.13.83c3.21,7.82,9.53,14.59,8.54,24.29l-11.91-4.63c.22,1.64.87,2.35,1.68,2.68,5.69,2.33,11.81,4.13,13,11.51-1,7.12-2.07,14.25-3.21,22-9,.58-19.2-.62-27.4,6.31l-1.15.85-3.12-.1-3.18-2.9-1.93-.79c.34.58.68,1.16,1,1.74l3.21,2.81,6.29,5.31c-.77-2.75-1.12-4-1.47-5.23l1-1c7.79-3.73,15.94-5.83,24.62-5.13,1.62.13,4,.77,4.62,1.94,4.5,8,12.07,10.08,20.25,10.75,12.71,1,20.35,8.31,21.73,22.32-9.49-2.08-18.63-4.09-27.77-6.08-3.67-.8-7.33-1.57-11-2.35l.08.06-2.07-1.05.07,0-20.07-9,.07,0-2.07-1,.06.05-1-1.06.06.05-5.75-5c-2.7,10.37-3.33,19.52,2.73,28l0-.07,1.06,1.05Zm-20.5-41.36.91.93,1.75,1.09-.78-2-1-1c-.33-.34-.65-.69-1-1L1699,314.3l-.92.81c.72.88,1.45,1.76,2.18,2.63C1700.6,318.11,1700.92,318.48,1701.25,318.83Z"/><path class="cls-4" d="M1725.81,453.21c5.21,2,10.48,3.79,15.63,5.9,6.4,2.62,12.57,5.94,19.14,8,3.36,1.07,7.37.12,11.09.08q6.91,3.58,13.81,7.19a17.75,17.75,0,0,1-.55,1.89c-4.58,11.41-4.49,11.64,6.77,16.12.31.12.63.19,1,.29,2.47,5.5,7.78,6.1,12.71,7.37,0,7.39-1,14.95.27,22.11,1.21,6.87,4.75,13.33,7.26,20L1795,558.31c-1.37-.83-3-1.41-4.08-2.55-11.37-12.42-24.69-22.55-38.47-32-6.84-4.69-9.35-11.76-12.64-18.56,0-.66,0-1.32,0-2l0,.05Z"/><path class="cls-16" d="M1525.77,437.23a24.59,24.59,0,0,0,2.64-1.4c7.37-5.13,7.65-5.36,12.74,1.42,11.25,15,22.15,30.24,33.26,45.33,2.2,3,.35,4.52-1.76,6.06-14.61,10.66-29.18,21.36-43.87,31.91-7.54,5.42-7.65,5.3-13.24-2-4.61-6.07-9.17-12.17-13.76-18.26l-3-4-18-25.34,16.1-12.62Zm-8.68,30.51c-1.92-2.65-3.54-4.39-4.57-6.43-1.72-3.39-3.61-3.16-6.24-1.07-3.11,2.48-6.4,4.74-9.63,7.07-6.93,5-7.11,6.69-.84,12.62.8.75,3,1.15,3.78.6C1505.43,476.5,1511.08,472.19,1517.09,467.74Zm3.72,44.92c.23.78.47,1.55.7,2.32,2-.63,4.21-.85,5.84-2,6-4.12,11.72-8.58,17.6-12.85,6.14-4.47,12.41-8.78,18.42-13.41,1.1-.84,1.25-2.91,1.83-4.41-1.35.33-3,.3-4,1-5.7,3.94-11.29,8.05-16.9,12.13Q1532.54,504.06,1520.81,512.66Z"/><path class="cls-19" d="M1966.84,660.93c-6.54,4.68-12.83,9.81-19.69,14a449.93,449.93,0,0,1-100,45,10.34,10.34,0,0,1-1.48.21c1.67-11.46,8-20.35,16.42-27.62,14.24-12.36,28.94-24.21,43.48-36.23,4.68-3.86,9.46-7.59,14.2-11.38,3.64,1.15,7.3,2.22,10.91,3.46Q1948.8,654.62,1966.84,660.93Z"/><path class="cls-20" d="M2015.77,577.21c3.55,6.42,7.06,12.87,10.68,19.25a54,54,0,0,0,3.36,4.77c-2.28,3.41-4.25,7.07-6.88,10.17a294.75,294.75,0,0,1-48.32,44.86,37.6,37.6,0,0,1-5.64,2.93L1923.89,644l20.93-14.8c12.16-7.66,24.8-14.66,36.35-23.15C1993.24,597.19,2004.28,586.89,2015.77,577.21Z"/><path class="cls-14" d="M1919.82,644.93c-4.74,3.79-9.52,7.52-14.2,11.38-14.54,12-29.24,23.87-43.48,36.23-8.39,7.27-14.75,16.16-16.42,27.62l-47.92,12.61c-.35-.54-.7-1.08-1.06-1.61,5.46-8.59,10.63-17.37,16.42-25.71,13.22-19,31.38-32.39,51.56-43,13.93-7.33,28.4-13.66,42.64-20.4a25,25,0,0,1,3.31-1Z"/><path class="cls-5" d="M2012.59,147.9c-8.46,3.95-17,6.78-27.77,4.1-3.83,2.86-8.78-.34-13.77-1.48-4.67-1.06-9.31-2.29-14-3.45q.39-3.4.76-6.81c.17-1,.33-2,.5-3-.33-7.47-.67-14.94-1.08-24.22l17.52-10.84c6.89,4.66,14,9.06,20.58,14.11,2.34,1.79,3.45,5.18,5.12,7.84-.37,1.23-.73,2.46-1.09,3.69l-.84,2.15-4.2,8.81c-.36.64-.74,1.27-1.1,1.9l-.81,1.16-1.25,1.78-1.93,3.05-.91,1.08-.78,1.95,1.61-1.13.89-1.12,2.17-2.87c.36-.64.71-1.28,1.06-1.92l.82-1.16,1.15-1.92,4-8.95c.32-.68.65-1.36,1-2,.48-1.47,1-2.95,1.45-4.43,6.32,4.73,8.2,11.8,10,18.92C2012.1,144.7,2012.3,146.31,2012.59,147.9Z"/><path class="cls-11" d="M1693,675.61c-9.28-5.72-10.91-14.24-8.06-23.85,1.47-5,1.93-9.55-.07-14.37a23.75,23.75,0,0,1-.89-4.75,7.76,7.76,0,0,1,1.55.24c.84,7.62,5.36,10.42,12.7,11.2,3.65.39,7,3.4,10.53,5.22,2.33,5.56,5,11,6.87,16.71,1.65,5.18,2.31,10.67,3.49,16.42A56.85,56.85,0,0,1,1693,675.61Z"/><path class="cls-19" d="M1872.58,585.29l-18.91-2.19c-.64-2-1.78-4-1.84-6.05-.21-7.31-.06-14.63,0-21.94,1.72-1,3.45-1.93,5.15-3,9-5.38,18.6-9.94,24.08-19.61l10.28,2.5-1.37,2.54q-3.74,5.35-7.49,10.69C1875,559.51,1872.4,572,1872.58,585.29Z"/><path class="cls-5" d="M1918.8,117.28c-3.25-.13-1.49-1.83-.71-2.76q8.19-9.87,16.58-19.59a59.13,59.13,0,0,1,4.27-4.1c3.48.16,7.25-.48,10.39.64,8,2.83,15.62,6.45,23.4,9.75-7,4.61-14.16,9-21,13.94-2.38,1.71-4,2.54-7,1.3C1936.09,112.89,1927.34,113.4,1918.8,117.28Z"/><path class="cls-8" d="M1851.78,555.11c0,7.31-.16,14.63,0,21.94.06,2,1.2,4,1.84,6.05l-6.7.27a52.25,52.25,0,0,0-5.88-2.2c-7.3-1.8-14.18-4.35-19.66-9.77-6.49-6.41-6.29-13,.6-19.33C1831.5,557.49,1841.31,559.51,1851.78,555.11Z"/><path class="cls-15" d="M1822,552.07c-6.89,6.37-7.09,12.92-.6,19.33,5.48,5.42,12.36,8,19.66,9.77a52.25,52.25,0,0,1,5.88,2.2c-21.33,3.56-39.16-1.61-50.86-19.92-.88-1.39-.77-3.41-1.12-5.14l17.9-16.15Q1817.45,547.13,1822,552.07Z"/><path class="cls-11" d="M2059.57,494.77l-20.06,10.89c-6.37-14.21-.61-29.4,12.28-33.38h11.46C2065.92,480.65,2065.18,488.1,2059.57,494.77Z"/><path class="cls-9" d="M1743.83,248.51c14,2.48,25.58,9,34.5,20.1a29.08,29.08,0,0,1,2.53,4.59c-4.54,0-9.32-.83-13.54.33s-7.3,1.29-10.56-1.34l.06.05a39,39,0,0,0-23-10.09Z"/><path class="cls-17" d="M1918.8,117.28c8.54-3.88,17.29-4.39,26-.82,3,1.24,4.62.41,7-1.3,6.81-4.9,14-9.33,21-13.94l2,1-17.52,10.84c.41,9.28.75,16.75,1.08,24.22l-1.54-.07c-.45-6.72,1.24-13.83-4.26-21.25-6.84,8.57-14.07,16-19.34,24.63-7,11.38-12.37,23.7-18.45,35.62l-1.81,0a157.22,157.22,0,0,1,33.44-56.49c-9.57-4.87-18.58-3.24-27.62-.67C1918.78,118.49,1918.79,117.89,1918.8,117.28Z"/><path class="cls-2" d="M1919.82,644.93l-9.15-3.95c-12.53-6.91-22.94-16.11-29.34-29-3.13-6.34-5-13.29-7.46-20h1.72c3.5,8.18,6.18,16.85,10.71,24.42,6.78,11.34,16.57,19.77,29.51,23.9l8.08,3.71L1969,659.19l-2.13,1.74q-18-6.28-36.11-12.54C1927.12,647.15,1923.46,646.08,1919.82,644.93Z"/><path class="cls-14" d="M1725.81,453.21l14,50.05a39.64,39.64,0,0,1-3.07-4.38,170.88,170.88,0,0,1-15.93-45.42c-.81-3.95-2.59-7.69-3.92-11.53l1.67-.95Z"/><path class="cls-8" d="M1780.79,446.2l14,5.11-6.78,17-13.44-3.3Q1777.68,455.61,1780.79,446.2Z"/><path class="cls-5" d="M1875.59,592h-1.72l-1.29-6.69c-.18-13.26,2.39-25.78,9.85-37l1.25,1.26c-5.83,11.53-10.17,23.41-8.53,36.67C1875.3,588.14,1875.44,590.06,1875.59,592Z"/><path class="cls-15" d="M1774.57,465l13.44,3.3q-1.27,3-2.53,6.1-6.9-3.6-13.81-7.19Z"/><path class="cls-14" d="M1733.87,262.15a39,39,0,0,1,23,10.09l-3.93-1.53-18.06-6.9-1.13-.83A1.27,1.27,0,0,1,1733.87,262.15Z"/><path class="cls-1" d="M1999.39,127.87c.36-1.23.72-2.46,1.09-3.69l1.27,0c-.48,1.48-1,3-1.46,4.43Z"/><path class="cls-1" d="M1691,302.18c.34.62.68,1.23,1,1.85l-.89.76-1.6-2.44Z"/><path class="cls-14" d="M1739.75,503.21c0,.66,0,1.32,0,2C1739.79,504.53,1739.77,503.87,1739.75,503.21Z"/><path class="cls-4" d="M551.8,357.21l8.79,32.63c-3.43-.5-6.9-1.59-10.27-1.35-5.45.39-7.18,4.83-4,9.31,1.09,1.55,2.4,2.94,4.22,5.15-4.8.35-8.77.26-12.55,1.09-1.9.41-4.67,2.35-4.85,3.85-.21,1.83,1.79,4,3.06,5.87.49.71,1.61,1,2.9,1.72-2,3-3.76,5.72-5.54,8.46-2,3-3,6.25.36,8.85,3.65,2.8,5.74-.53,7.77-2.76,2.38-2.61,4.47-5.48,7.21-8.89,1.38,2.38,2,4,3.06,5.11s3.38,3.05,4,2.68a8.07,8.07,0,0,0,3.66-4.57c.53-2.14-.06-4.58-.35-6.87-.53-4.2,1.09-5.17,4.75-3.37-.73,3.95-1.89,7.88-2.14,11.86a209.72,209.72,0,0,1-10.11,51.26c-3.63,9.56-6.51,19.49-11,28.6-6.71,13.45-14.57,26.33-22,39.42a18.06,18.06,0,0,1-2.64,2.92l-22.18.21-9.18-1.18q0-29,.07-58c0-1.32,0-2.64,0-4l0-2.93V469.16h-26l-28.47.23c-11.34-14.72-22.8-29.36-34-44.2-7.67-10.18-14.94-20.65-22.39-31l-1.35-9,0-12.95.12-1.06c5.17-2.94,8.77-6.68,8.26-13.34-.22-2.82.8-5.74,1.1-7.62l-8.62,2c-.24-5.49-.18-11-.8-16.46-1.44-12.65-3.71-25.36-12.21-35.3-18.82-22-42.76-31.73-71.7-26.71-21.22,3.69-37,16.07-49.13,33.29-9.17,13-19,24.49-35.73,28.39-7.78,1.82-10.2,6.29-9.17,14.44A125.78,125.78,0,0,0,200.4,376c4.33,12.24,1.35,20.78-8.4,29.32-15.77,13.82-30.59,28.85-41.11,47.32-10,17.59-12.24,35.91-1.93,54.16,3.55,6.28,8.85,11.57,13.35,17.32l-28.54.06c-2.87-12.37-8.25-23.6-15.09-34.4-.5.53-.67.62-.68.73-1.41,13.14-5.3,25-16.54,33.31-.83.62-.86,2.91-.61,4.3,1.2,6.69,3.06,13.28,3.88,20,2.29,18.77-1.36,36.68-8.77,53.93l-3.14,0,2-4.55a43.39,43.39,0,0,1-6-1.92,47.8,47.8,0,0,1-5.31-3.46l.14-.12L95.87,595c8.09-19.27,8.5-38.71,4.53-58.46-.18-.92-2-2.11-3.11-2.15a43.13,43.13,0,0,1-21.5-7.15c-4-2.56-7.81-5.5-12-8.45a29.07,29.07,0,0,1-3.08,4c-3.81,3.48-7.76,6.82-11.65,10.21-4.48-8.21-3-16.24-.23-24.72,2.14-6.66-2.77-14.34-9.75-17.71L37.38,490a.6.6,0,0,1-.4-.46l-2.18-.31c-3.32,1.67-7.62,2.53-9.8,5.15C16.93,504.1,13.71,516,11.86,528.23l.12,2.11c.3.63.6,1.26.89,1.89-.46.62-.92,1.25-1.39,1.87l.21,15.16.21,2c.33,1.63.59,3.27,1,4.88,3.24,13.18,9,24.91,19.83,33.57l5.07,12.42-28,.19c-2.36-12-5.61-23.84-6.86-35.93C1.15,548.77-.42,531,.1,513.36.7,493,3.63,472.6,5.63,452.23a217,217,0,0,1,11.21-51.75c4.1-11.54,8.93-22.81,13.42-34.22,1-2.45,1.83-4.94,2.75-7.41,7.43,9.92,28.51,11.09,40,6.72-2.66-5.31-5.7-10.45-7.88-15.93-3.19-8-8.3-13.82-16.46-16.8,12.23-16.89,23.67-34.45,36.93-50.5a535.25,535.25,0,0,1,43.54-46.56c15.7-14.95,32.57-28.73,49.49-42.33A491.77,491.77,0,0,1,247.93,147a506.6,506.6,0,0,1,53.25-26.13C320,113.1,339.53,107,359.06,101.19a146.56,146.56,0,0,1,52.63-5.8c21.53,1.63,42.41,6.39,60.05,19.9,15.19,11.62,23.34,27.11,24.09,46.46,1,26.84-7.84,50.78-20.57,73.78A205.48,205.48,0,0,1,441.87,280c-7.8,8-15.55,16.43-18.22,28-2.31,10,4.21,19.26,14.46,19.1A62.28,62.28,0,0,0,455.05,324c12-3.68,23.67-8.78,35.85-11.76,18.81-4.6,34.37,2,46.21,17C543.68,337.62,548.92,346.83,551.8,357.21ZM378.52,154.29a25.33,25.33,0,0,0-1.38,3.17c-1.29,4.41-3,8.8-3.5,13.31-.21,1.92,1.75,4.95,3.55,5.92,1.44.77,4.25-.56,6.24-1.44,1.5-.67,2.66-2.1,4.83-3.9.25,4,.47,7,.6,9.9.14,3.23.16,6.69,3.92,7.84,4.34,1.32,5.71-2.2,7.29-5.15.13-.23.56-.3,1.35-.69,2.22,1.53,4.61,3.26,7.09,4.87,3.08,2,6.54,3.73,9.37.15,3-3.75-.53-6.05-2.9-8.23s-5.21-4.33-8.26-6.84c1.91-1.25,3.16-1.79,4-2.7a58,58,0,0,0,3.71-4.67,45.66,45.66,0,0,0-5.89-3.79c-1.06-.49-2.61,0-3.93.16-6.46.8-7.11-.06-4.57-6.18,1.93-4.62,1-6.88-3.8-8.25-5.88-1.68-11.22-.74-15.49,4-1.87-.86-4-1.4-5.56-2.66-3.88-3.17-7.5-6.66-11.22-10l-1.11,1.21ZM50.73,448.39C71.79,469.93,88.8,493.71,99,522c10.19-5.85,19.18-25.78,16.61-36.3a7.37,7.37,0,0,0-1.7-3c-7-7.82-13.33-16.35-21.17-23.16-6.79-5.89-15-10.42-23.11-14.4C63.48,442.12,56.9,443.44,50.73,448.39ZM49,451.21c-8.1,8.69-7.21,26.18,1.8,33.83,7.53,6.39,15.09,13.57,14.4,23.88-.5,7.55,3.19,10.52,8,13.61a78.68,78.68,0,0,0,13.1,7.1c3.78,1.51,8,1.85,12.52,2.81C94.47,505.6,65.27,463.53,49,451.21Z"/><path class="cls-2" d="M218.86,721.51c-22.66,5.94-45.58,10-69.12,9.82L121.85,711.2c-.92-1-1.81-1.93-2.76-2.85C104.12,694,92.27,677.78,88.27,657c-2.16-11.18-.67-21.85,6.93-31.06,7-8.43,16.56-11.95,26.57-14.82A92.9,92.9,0,0,1,158.89,613l7.89,1.95c10.09,3.14,20.17,6.3,30.28,9.38,2.47.75,5,1.22,7.54,1.83l15.15,5,21.85,6.42,6.19,1.61c5.38,1.55,10.71,3.31,16.15,4.61,15.75,3.77,31.76,7.5,47.79,3,20.31-5.72,40.29-12.6,60.4-19,20.58-6.71,41-13.79,61.76-20,10.3-3.07,21.09-4.46,31.66-6.61C450,612.66,435,624.89,418.88,635.42c-47.5,31-98.65,54.61-152.33,72.8a32.57,32.57,0,0,1-3.83.82,11.3,11.3,0,0,0-1.75-1.71c-13.77-8.64-27.42-17.5-41.39-25.81-19.19-11.4-39.06-21.49-60.64-27.64-8.82-2.5-17.84-4.55-27.14-2.23,19.19,1.35,34.34,10.52,47,24.23,7.44,8,14.49,16.42,21.7,24.66Q209.72,711,218.86,721.51Z"/><path class="cls-16" d="M166.78,614.91,158.89,613v-9.45H121.77v7.6c-10,2.87-19.62,6.39-26.57,14.82-7.6,9.21-9.09,19.88-6.93,31.06,4,20.79,15.85,37,30.82,51.36,1,.92,1.84,1.9,2.76,2.85l-.09,18c-10.8-1.31-20.33-6.11-29.49-11.46-30.2-17.61-51.93-43-67.28-74.18a28.22,28.22,0,0,1-1.36-4.23c7.3-.07,14.59-.27,21.88-.14,3.17,0,4.48-.85,4.34-4.2-.23-5.13-.27-10.29,0-15.42.19-3.62-1.28-4.47-4.62-4.42-10.45.16-20.89,0-31.34,0l-4.07-13,28-.19h55l3.14,0h15.93v-5.8c0-22.28.07-44.55-.07-66.82,0-3.78.87-5.42,5-5.19,5.63.3,11.3,0,17-.06l28.54-.06c1.43,1.11,2.94,2.16,4.29,3.36,6.48,5.77,13.63,8.06,22,4.36-.73,2.35-1.43,4.7-2.2,7-2.28,6.93-2.28,6.89,4.42,9.91A21,21,0,0,1,194,551c-5.13,11.49-10.34,22.94-15.34,34.48-1.39,3.2-2.92,4.95-6.89,4.88-15.47-.27-30.94-.17-46.41,0-1.95,0-5.35-1.56-5.41,2.3-.08,4.29,3.61,2.52,5.64,2.54,14.31.16,28.61.07,42.92.1,1.69,0,3.38.26,5.26.42Zm-33.16-68.65c1.5,0,3,0,4.49,0,11.13-.31,9.45,2.36,9.73-10.2.08-3.22-1.32-3.93-4.17-3.84-4.81.15-9.63,0-14.45,0-9.6,0-9.47,0-9.49,9.45,0,3.34.79,4.92,4.43,4.61C127.29,546.05,130.47,546.26,133.62,546.26Z"/><path class="cls-16" d="M465.55,601.2c-10.57,2.15-21.36,3.54-31.66,6.61-20.73,6.18-41.18,13.26-61.75,20-1.12-3.23-2.71-6.37-3.28-9.68-2.48-14.25-4.66-28.55-6.95-42.84,6.62,3.61,13.06,7.6,19.9,10.75,14.79,6.81,30.42,10.52,46.72,9,6-.57,12.17-2.88,17.61-5.66,6.31-3.23,7.26-9.59,3.54-15.74-1.28-2.12-2.59-4.23-3.89-6.35-3.94-10.09-7.69-20.27-11.9-30.26-2.3-5.44-5.39-10.54-8.12-15.79.93-2.13,1.88-4.24,2.77-6.37,6.22-14.94,9.51-30,1.7-45.45l28.47-.23q0,35.86,0,71.72c0,6.33,0,6.34,6.57,6.34h19.42l9.18,1.18q-.06,13-.11,26c-2.68,3.08-5.11,6.45-8.1,9.2C479.14,589.63,472.28,595.35,465.55,601.2Z"/><path class="cls-6" d="M218.86,721.51q-9.15-10.49-18.32-21c-7.21-8.24-14.26-16.63-21.7-24.66-12.7-13.71-27.85-22.88-47-24.23,9.3-2.32,18.32-.27,27.14,2.23,21.58,6.15,41.45,16.24,60.64,27.64,14,8.31,27.62,17.17,41.39,25.81a11.3,11.3,0,0,1,1.75,1.71Z"/><path class="cls-11" d="M48.64,332.84c8.16,3,13.27,8.78,16.46,16.8,2.18,5.48,5.22,10.62,7.88,15.93-11.46,4.37-32.54,3.2-40-6.72-1.7-8.07-3.4-16.14-5.16-24.55A37.41,37.41,0,0,1,48.64,332.84Z"/><path class="cls-12" d="M13.89,615.23c10.45,0,20.89.13,31.34,0,3.34-.05,4.81.8,4.62,4.42-.27,5.13-.23,10.29,0,15.42.14,3.35-1.17,4.25-4.34,4.2-7.29-.13-14.58.07-21.88.14Z"/><path class="cls-12" d="M493.81,574.4q0-13,.11-26l22.18-.21Z"/><path class="cls-12" d="M121.76,729.25l.09-18,27.89,20.13Z"/><path class="cls-1" d="M1078.76,412.3c-.19-.67-.37-1.34-.56-2C1078.39,411,1078.57,411.63,1078.76,412.3Z"/><path class="cls-14" d="M835.72,567.24l-4-4.06c4.82-7.24,6.6-15,3.24-23.5C842.5,546.86,842.6,557.42,835.72,567.24Z"/><path class="cls-1" d="M915.62,663.2l-1.77,0c.36-.81.71-1.61,1.06-2.42l.82.15Z"/><path class="cls-16" d="M965.4,292c6.8.26,13.61.37,20.39.89a7.81,7.81,0,0,1,4.54,2.54c5.12,5.45,10,11.09,15,16.66l-22.6-1.82Z"/><path class="cls-8" d="M982.75,310.22l22.6,1.82c.32,1.22,1.23,2.7.84,3.62-1.52,3.63-3.46,7.08-5.24,10.6l-27.19-2Q978.26,317.22,982.75,310.22Z"/><path class="cls-11" d="M564.05,414.12c-3.66-1.8-5.28-.83-4.75,3.37.29,2.29.88,4.73.35,6.87a8.07,8.07,0,0,1-3.66,4.57c-.67.37-2.9-1.48-4-2.68s-1.68-2.73-3.06-5.11c-2.74,3.41-4.83,6.28-7.21,8.89-2,2.23-4.12,5.56-7.77,2.76-3.39-2.6-2.33-5.82-.36-8.85,1.78-2.74,3.58-5.46,5.54-8.46-1.29-.74-2.41-1-2.9-1.72-1.27-1.87-3.27-4-3.06-5.87.18-1.5,3-3.44,4.85-3.85,3.78-.83,7.75-.74,12.55-1.09-1.82-2.21-3.13-3.6-4.22-5.15-3.16-4.48-1.43-8.92,4-9.31,3.37-.24,6.84.85,10.27,1.35l7.15,3.41,1.87,2c4.2,3.23,5.63,7.61,5.19,12.72C574.14,415.64,571.2,417.31,564.05,414.12Z"/><path class="cls-13" d="M1498.81,496.22l3,4q-2,17-4,34l-3.67.65V496.6Z"/><path class="cls-13" d="M1496.79,542.23v8c-1-1.42-2.68-2.79-2.78-4.27C1493.93,544.78,1495.79,543.48,1496.79,542.23Z"/><path class="cls-13" d="M1875.59,592c-.15-1.92-.29-3.84-.44-5.77,11.36-.33,22.75-.25,34.07-1.13,7.25-.57,14.39-2.55,21.58-3.89l2-1-.06,0c2.11-.34,4.37-.32,6.32-1.08,9.87-3.87,19.88-7.51,29.43-12.1a131.62,131.62,0,0,0,19.84-12.23c4-2.85,3-6.68-1.72-8-3.78-1-7.82-1.08-11.75-1.57-5.64-1.07-11.46-1.59-16.86-3.37-4.36-1.44-8.21-4.42-12.28-6.71l-.07-7c2.3-5.53,4.63-11.05,6.88-16.6.83-2.08,1.45-4.24,2.18-6.36,9.1-7.47,18.42-1.56,27.11.45,14,3.24,27.57,8.51,39.11,17.64,5.64,4.47,11.26,9.49,11.81,17.08a31.07,31.07,0,0,1-2.47,15.15c-3,6.31-7.88,11.75-11.92,17.57-.92,1.32-1.75,2.71-2.61,4.06-11.49,9.68-22.53,20-34.6,28.85-11.55,8.49-24.19,15.49-36.36,23.15-9,2.87-18,5.7-27,8.69-.85.28-1.36,1.58-2,2.4-12.94-4.13-22.73-12.56-29.51-23.9C1881.77,608.83,1879.09,600.16,1875.59,592Z"/><path class="cls-18" d="M1613.42,636.56l-3.88-1.27c-26.5-8.81-53-17.68-79.53-26.36-3.75-1.23-4.46-2.8-3.21-6.5q13.6-40.11,26.82-80.37c1.14-3.44,2.67-4.48,6.2-3.3q39.95,13.41,80,26.54c3.93,1.28,5.17,2.57,3.66,7-8.58,25-16.8,50-25.11,75.09-.68,2-.94,4.28-1.89,6.17C1615.76,634.87,1614.23,635.78,1613.42,636.56Zm-50.37-106.79c-1,1.21-2.94,2.45-3.35,4.07a92.86,92.86,0,0,0-1.8,12.13c0,.17,1.15.49,1.78.7,8,2.68,16,5.44,24.14,7.93,1.31.4,4,.06,4.31-.67a105.33,105.33,0,0,0,4.2-12.69c.14-.5-1-1.77-1.78-2C1581.79,536.11,1573,533.15,1563.05,529.77Zm47.67,93c0-.65.07-1.3.1-2a25.81,25.81,0,0,0-4.41-2.5c-20.91-7-41.83-14.06-62.82-20.86-1.51-.49-3.6.78-5.42,1.23,1.23,1.36,2.2,3.43,3.72,4,10.63,3.76,21.38,7.2,32.08,10.77,10.37,3.45,20.71,7.05,31.15,10.29C1606.73,624.2,1608.84,623.11,1610.72,622.75Z"/><path class="cls-18" d="M1917.47,225a34.27,34.27,0,0,1,3,2.85c11.74,14.22,23.34,28.55,35.23,42.63,2.75,3.27,2.44,5.34-.61,7.85-13.72,11.3-27.37,22.69-41.07,34-4.81,4-4.84,3.84-8.87-1.06-11.29-13.74-22.54-27.5-34.09-41-2.64-3.1-2.5-4.85.45-7.27,12.84-10.54,25.59-21.18,38.38-31.79Zm-.53,9.18c-2.09,1.53-3.84,2.76-5.53,4.06-2.46,1.88-3.45,3.71-.78,6.5,3.31,3.46,6.23,7.3,9.21,11.07,4,5.11,5.93.08,8.66-1.63,3.58-2.24,1.89-4.35.1-6.47C1924.86,243.27,1921.05,238.92,1916.94,234.16Z"/><path class="cls-18" d="M1908.7,382.57c-7.08-.51-13.34-.85-19.59-1.42-9.56-.88-19.11-2.07-28.68-2.8-3.32-.25-3.7-1.58-3.4-4.45,1.06-9.88,1.83-19.79,2.8-29.68.48-4.94,1.25-9.85,1.68-14.79.26-3.07,2.06-3.32,4.47-3.08q20.77,2,41.56,4c3.61.33,5.77,1.43,5.33,5.81C1911.35,351.27,1910.13,366.44,1908.7,382.57Zm-8-47.07c-.23.22-2.34,1.29-2.68,2.77-.83,3.65-.74,7.5-1.23,11.24-.6,4.57,3.12,3.81,5.49,4.52,2.89.87,3.9-1.21,4.14-3.49.34-3.28-.2-6.73.63-9.84C1908.27,336.18,1906.72,334.85,1900.7,335.5Z"/><path class="cls-5" d="M1748.74,348.19c2.34,1.07,4.58,2.51,7,3.13,10.12,2.56,20.3,4.87,30.86,7.37a8.8,8.8,0,0,1-5.07,8.38c-4.89,2.24-10.15,4.33-15.43,4.92-12.19,1.35-24.28-.6-35.9-4.27-3.29-1-5.67-4.94-8.48-7.53l.06.06-1.06-1.05,0,.07a54.54,54.54,0,0,0-1.25-6.53c-1.81-5.77-2.69-11.47-.23-17.13l4.5.64-.06-.05,1,1.06-.06-.05,2.07,1-.07,0,20.07,9-.07,0,2.07,1.05Z"/><path class="cls-5" d="M1918.76,119.09c9-2.57,18-4.2,27.62.67a157.22,157.22,0,0,0-33.44,56.49c-.62,1.53-1.25,3.05-2,5-7.07-2.74-9.52-8.64-9.68-15-.42-15.72,4.9-30.08,12.28-43.69C1914.37,120.93,1917,120.22,1918.76,119.09Z"/><path class="cls-5" d="M1914.75,176.22c6.08-11.92,11.5-24.24,18.45-35.62,5.27-8.63,12.5-16.06,19.34-24.63,5.5,7.42,3.81,14.53,4.26,21.25-.19,1-.37,1.95-.56,2.93-.47,2-1,4-1.43,6.08-10.69,3.81-15.1,12.36-17.7,22.65-2.25,8.88-12.85,14.45-23.81,13Z"/><path class="cls-2" d="M1802.53,442.08c13.77-19.89,33.46-27.16,56.67-25.3,18.78,1.5,34.58,9.82,47.33,23.93,2.1,2.34,5.33,3.75,8.21,5.26,3,1.61,4.45,3.31,2.13,6.63a4.26,4.26,0,0,0-.39,3.56c5.21,11.07,6.07,22.67,4.6,34.61a5.82,5.82,0,0,0,.19,1.47l-5-4.36a51.62,51.62,0,0,0-2.55-25.75c-.55-1.51-2-2.7-3-4-1.33-8.84-7.23-14.37-14-19.3a14.24,14.24,0,0,0-2.19-3.08c-27-22-67.63-19.4-87.2,7.55Z"/><path class="cls-11" d="M1848.67,215.25c4.34,1.83,6.17,5.34,6.39,9.81.31,6.27-1.19,7.57-7.42,6.47-3.5-.61-4.84.51-3.51,4,.29.78,1,1.56.89,2.3-.22,2.43-.69,4.84-1.07,7.26-2-.84-4.08-1.65-6.09-2.54a17.8,17.8,0,0,1-2.24-1.58c-1.52,2.89-2.61,5.86-4.49,8.19-1.31,1.63-4,3.67-5.55,3.29-3.42-.85-3.25-4.09-2.22-7,.56-1.56,1.25-3.07,1.93-4.58,1-2.25,1.31-3.87-1.84-4.92-1.43-.48-3.22-2.82-3.12-4.19s2-3.46,3.51-4.16c2.81-1.26,6-1.73,10-2.8-1.77-1.51-3-2.23-3.79-3.3-1.07-1.53-2.77-3.63-2.37-4.92a6.93,6.93,0,0,1,4.39-4c3-.65,6.2-.22,9.32-.1,1.8.07,3.59.42,5.39.64Z"/><path class="cls-8" d="M1954.74,505.26c-.73,2.12-1.35,4.28-2.18,6.36-2.25,5.55-4.58,11.07-6.88,16.6a85.51,85.51,0,0,1-31.08-12.28L1921,500c8.78,1.52,17.55,3.07,26.35,4.51C1949.79,505,1952.27,505,1954.74,505.26Z"/><path class="cls-6" d="M1802.53,442.08l4.89,1.19,3.34,2.05c-.83,2.65-1.53,5.34-2.54,7.92-5.14,13.17-10.37,26.32-15.57,39.47-.32-.1-.64-.17-1-.29-11.26-4.48-11.35-4.71-6.77-16.12a17.75,17.75,0,0,0,.55-1.89q1.26-3.06,2.53-6.1l6.78-17C1796.36,447.39,1797.89,443.43,1802.53,442.08Z"/><path class="cls-6" d="M1921,500l-6.41,15.9-4.94,12.14c-.52,1-1.11,2-1.57,3-2.79,6.19-3.92,6.65-10.56,4.53a18.39,18.39,0,0,0-3.74-.38,2.94,2.94,0,0,1,.06-1c5.93-14.59,11.84-29.19,17.93-43.72.47-1.12,2.19-1.71,3.33-2.54l1.19-.09,5,4.36C1921.18,494.84,1921.1,497.44,1921,500Z"/><path class="cls-9" d="M1782.82,276.07c7.25,8.7,10.29,19,10.65,30.05.12,3.74-1.23,7.94-6.25,8.74l-5.45-11.67,0,.06-5.07-8.05,0,.06-4-6.06,0,.07c-.34-.7-.68-1.39-1-2.08l0,.05-3.06-3,.06.06-1.06-1.06,0,.07c-1.22-2.28-2.45-4.56-3.75-7C1770.29,272.81,1776.56,274.56,1782.82,276.07Z"/><path class="cls-11" d="M1630.93,417.13c-5.87,1.52-8.19-.07-6.43-4a63.85,63.85,0,0,1,3.39-5.94c-.47-.41-.67-.7-.93-.79-2-.71-4-1.38-6-2.06,1.08-2.26,1.82-4.78,3.33-6.7,1.36-1.73,3.59-2.77,5.33-4.23.27-.23,0-1.13,0-1.44,1.6.45,3.17.87,4.71,1.35,1.86.59,4,.86,5.51,1.92,3.86,2.65,3.69,5.27-.14,7.92a10.15,10.15,0,0,0-1.32,1.16l5.77,8.45-6.15,2.22a36.42,36.42,0,0,1,1.61,6.73c.08,1.32-1.12,2.73-1.74,4.09-1.36-.67-3.22-1-4-2.1C1632.53,421.84,1631.93,419.52,1630.93,417.13Z"/><path class="cls-9" d="M1780.67,316.08c-5.82-1.64-9.62-5.05-11.42-11.13-1.46-4.94-3.93-9.64-10.28-9.87-1.18-6.35-3.89-12.68-.15-19.87l9,8.06,0-.07,1.06,1.06-.06-.06,3.06,3,0-.05c.35.69.69,1.38,1,2.08l0-.07,4,6.06,0-.06,5.06,8.05,0-.06,4.23,12.07-3.24,1Z"/><path class="cls-9" d="M1734.83,263.81l18.06,6.9,3.93,1.53-.06-.05c-1.53,7.41-1.84,14.8.08,22.19l-10.66,3.28c-1.23-7.38-7.35-9.18-13-11.51-.81-.33-1.46-1-1.68-2.68l11.91,4.63C1744.36,278.4,1738,271.63,1734.83,263.81Z"/><path class="cls-14" d="M1756.84,294.38c-1.92-7.39-1.61-14.78-.08-22.19,3.26,2.63,6.46,2.47,10.56,1.34s9-.3,13.54-.33l-.08,0,1.21,1.11.83,1.8c-6.26-1.51-12.53-3.26-18.77.23,1.3,2.41,2.53,4.69,3.75,7l-9-8.06c-3.74,7.19-1,13.52.15,19.87Z"/><path class="cls-12" d="M1848.67,215.25l-1.89-2.16,8.5-15.05,1.56.91c-2,3.48-4.12,6.91-6,10.47A46.27,46.27,0,0,0,1848.67,215.25Z"/><path class="cls-14" d="M1786,315.26l-4.23-12.07,5.45,11.67Z"/><path class="cls-17" d="M1954.81,146.23l1.44-6.08,1.59.11q-.37,3.41-.76,6.81Z"/><path class="cls-14" d="M1780.67,316.08l2.09.21Z"/><path class="cls-9" d="M1782,274.27l-1.21-1.11Z"/><path class="cls-12" d="M2009.67,316.13c-1.15-.62-2.07-1-2.89-1.56-8.7-5.78-17.32-11.67-26.09-17.32-3.15-2-3.37-4.1-1.35-7,2.2-3.12,4.24-6.34,6.39-9.49,1.56-2.28,3.36-2.79,5.86-1.1,8.77,6,17.71,11.68,26.38,17.78,1.27.9,2.46,3.94,1.88,5.07a98.28,98.28,0,0,1-7.58,11.64A10.69,10.69,0,0,1,2009.67,316.13Z"/><path class="cls-8" d="M1941.91,348.9c1.71,1,3,1.71,4.23,2.52q31.33,20.7,62.66,41.4c1.52,1,3.48,1.57,4.59,2.89,1.29,1.53,3,4.14,2.51,5.43-1.29,3.18-4,1.9-6.2.42-8.29-5.45-16.61-10.87-24.9-16.33-14.53-9.57-29.07-19.12-43.49-28.84a6,6,0,0,1-2.15-4.3C1939.14,351.06,1940.89,350,1941.91,348.9Z"/><path class="cls-1" d="M1723.82,336.25l-4.5-.64c-2.46,5.66-1.58,11.36.23,17.13a54.54,54.54,0,0,1,1.25,6.53c-6.06-8.48-5.43-17.63-2.73-28Z"/><path class="cls-1" d="M1746.82,347.24l-20.07-9Z"/><path class="cls-1" d="M1715.26,327.7c.34,1.24.69,2.48,1.46,5.23l-6.29-5.31.87-.86,3.12.1Z"/><path class="cls-1" d="M1692,304q1.68,2.84,3.35,5.68l-.79.74-3.45-5.66Z"/><path class="cls-1" d="M1710.43,327.62l-3.21-2.81.9-.95,3.18,2.9Z"/><path class="cls-1" d="M1700.27,317.75l-2.17-2.64.92-.81,2.14,2.54Z"/><path class="cls-1" d="M1696.27,310.75l1.63,2.1-.67.71-1.81-2Z"/><path class="cls-1" d="M1703.13,318.88l.78,2-1.75-1.09Z"/><path class="cls-1" d="M1707.22,324.81c-.35-.58-.69-1.16-1-1.74l1.93.79Z"/><path class="cls-1" d="M1726.82,338.25l-2.07-1Z"/><path class="cls-1" d="M1748.82,348.25l-2.07-1.05Z"/><path class="cls-1" d="M1695.42,311.59l-.86-1.14.79-.74c.31.34.61.7.92,1Z"/><path class="cls-1" d="M1701.16,316.84c.32.35.64.7,1,1l-.89,1-1-1.09Z"/><path class="cls-1" d="M1702.13,317.88c.33.34.67.67,1,1l-1,.88-.92-.92Z"/><path class="cls-1" d="M1716.29,326.74l-1,1-.83-.84,1.15-.85Z"/><path class="cls-1" d="M1724.81,337.26l-1-1.06Z"/><path class="cls-1" d="M1720.75,359.2l1.06,1.05Z"/><path class="cls-6" d="M1822,552.07q-4.58-5-9.14-9.91c-2.51-6.64-6.05-13.1-7.26-20-1.26-7.16-.27-14.72-.27-22.11l5.13-3.78c-.46,1.93-1,3.86-1.36,5.8-1.68,8.12.33,9.6,8.58,9.59,18.9,0,36.25,4,47,21.87a6.58,6.58,0,0,0,9.89,1.84,41.52,41.52,0,0,0,4.2-4.19l2.22,1.34c-5.48,9.67-15.12,14.23-24.08,19.61-1.7,1-3.43,2-5.15,3C1841.31,559.51,1831.5,557.49,1822,552.07Z"/><path class="cls-2" d="M1810.49,496.3l-5.13,3.78c-4.93-1.27-10.24-1.87-12.71-7.37,5.2-13.15,10.43-26.3,15.57-39.47,1-2.58,1.71-5.27,2.54-7.92,3-3.25,6.45-3.5,10.32-1.52a24.52,24.52,0,0,0,4.66,1.33c2.47,4.17,1.16,8.14-.47,12.18a36.52,36.52,0,0,0-1.26,5.15l-.06-.21-1.11,3.07.11-.05-.27.94-9.94,25Z"/><path class="cls-12" d="M1517.09,467.74c-6,4.45-11.66,8.76-17.5,12.79-.78.55-3,.15-3.78-.6-6.27-5.93-6.09-7.64.84-12.62,3.23-2.33,6.52-4.59,9.63-7.07,2.63-2.09,4.52-2.32,6.24,1.07C1513.55,463.35,1515.17,465.09,1517.09,467.74Z"/><path class="cls-8" d="M1520.81,512.66q11.73-8.58,23.47-17.16c5.61-4.08,11.2-8.19,16.9-12.13,1.07-.73,2.67-.7,4-1-.58,1.5-.73,3.57-1.83,4.41-6,4.63-12.28,8.94-18.42,13.41-5.88,4.27-11.63,8.73-17.6,12.85-1.63,1.12-3.88,1.34-5.84,2C1521.28,514.21,1521,513.44,1520.81,512.66Z"/><path class="cls-14" d="M1915.81,640.3c.67-.82,1.18-2.12,2-2.4,9-3,18-5.82,27-8.69L1923.89,644Z"/><path class="cls-1" d="M1994.35,138.83l4.2-8.81.77.66-4,8.95Z"/><path class="cls-1" d="M1992.25,144.63l-2.18,2.87-.82-.78c.65-1,1.3-2,1.94-3.05Z"/><path class="cls-1" d="M1957.84,140.26l-1.59-.11c.18-1,.36-2,.55-2.93l1.54.07C1958.17,138.28,1958,139.27,1957.84,140.26Z"/><path class="cls-1" d="M1993.24,140.73c.37-.63.75-1.26,1.11-1.9l.92.8-1.15,1.92Z"/><path class="cls-1" d="M1989.18,148.62l-1.61,1.13.78-1.95Z"/><path class="cls-1" d="M1998.55,130l.84-2.15.9.77-1,2Z"/><path class="cls-1" d="M1991.19,143.67l1.25-1.78.87.82-1.07,1.92Z"/><path class="cls-1" d="M1994.12,141.55l-.82,1.16-.86-.82.81-1.16Z"/><path class="cls-1" d="M1988.35,147.8l.91-1.08.81.78-.89,1.12Z"/><path class="cls-2" d="M1881,532.55l-2.22-1.34c1-4.26,1.59-8.66,3-12.76,2.46-7,5.29-13.91,8.26-20.72s6.42-13.68,9.65-20.51l5.5.17c4.77,2.14,8.3,5.45,9.88,10.58-1.14.83-2.86,1.42-3.33,2.54-6.09,14.53-12,29.13-17.93,43.72a2.94,2.94,0,0,0-.06,1l-2.79,3.19-1.08-.82,1.37-2.54Z"/><path class="cls-2" d="M1883.68,549.54l-1.25-1.26q3.75-5.34,7.49-10.69l1.08.82Z"/><path class="cls-19" d="M1883.68,549.54l7.32-11.13,2.79-3.19a18.39,18.39,0,0,1,3.74.38c6.64,2.12,7.77,1.66,10.56-4.53.46-1,1.05-2,1.57-3,1.47.25,2.95.46,4.41.75l31.68,6.39c4.07,2.29,7.92,5.27,12.28,6.71,5.4,1.78,11.22,2.3,16.86,3.37,2.78,3.18,2.6,6.53-.35,9.21-4,3.63-8.08,7.34-12.7,10-9.49,5.58-19.36,10.51-29.07,15.71l.06,0-2,1c-7.19,1.34-14.33,3.32-21.58,3.89-11.32.88-22.71.8-34.07,1.13C1873.51,573,1877.85,561.07,1883.68,549.54Z"/><path class="cls-6" d="M188.58,531.85c-8.35,3.7-15.5,1.41-22-4.36-1.35-1.2-2.86-2.25-4.29-3.36-4.5-5.75-9.8-11-13.35-17.32-10.31-18.25-8.08-36.57,1.93-54.16,10.52-18.47,25.34-33.5,41.11-47.32,9.75-8.54,12.73-17.08,8.4-29.32a125.78,125.78,0,0,1-5.79-26.16c-1-8.15,1.39-12.62,9.17-14.44,16.69-3.9,26.56-15.36,35.73-28.39,12.13-17.22,27.91-29.6,49.13-33.29,28.94-5,52.88,4.69,71.7,26.71,8.5,9.94,10.77,22.65,12.21,35.3.62,5.45.56,11,.8,16.46-9.49,3.52-12.44,12.09-7.87,23l5.89-3.23,1.12.25,0,12.95c-6.09.34-12.19.73-18.29,1-4,.19-8,.43-11.91.27-3.49-.14-7-.8-10.43-1.24,5.58-10.16,3.48-19.08-4.35-27.11-1.62-1.67-3.09-3.49-4.55-5.3-13.26-16.48-30-31.18-27.73-55.47-8.84,2.54-15.92,8-19.86,17.9a317.68,317.68,0,0,0-13.29,40.07c-2.79,11.21-3.77,23,5.61,32.58-4.9.44-9.81.78-14.69,1.35-3.67.43-7.3,1.17-11.57,1.87,2,5.6,3.71,10.21,5.21,14.89,3.11,9.72,6.09,19.49,9.13,29.24l-4,2.05c-13.32,6.86-25.71,14.89-33.42,28.3-4.39,7.63-8.87,15.28-12.39,23.32C199.85,503.08,194.36,517.53,188.58,531.85Z"/><path class="cls-5" d="M92.82,602.09h-55l-5.07-12.42c-2.17-10.85-.31-21.41,2.33-31.91l3.74-8.66L49.1,532.93c3.89-3.39,7.84-6.73,11.65-10.21a29.07,29.07,0,0,0,3.08-4c4.15,3,7.94,5.89,12,8.45a43.13,43.13,0,0,0,21.5,7.15c1.1,0,2.93,1.23,3.11,2.15,4,19.75,3.56,39.19-4.53,58.46L83.67,592,64.75,580l-1.28,2.14c6.09,3.61,12.17,7.24,18.31,10.77.33.19,1.15-.49,1.75-.77a47.8,47.8,0,0,0,5.31,3.46,43.39,43.39,0,0,0,6,1.92ZM42.48,548.92c-.26,7.52,13.83,28.11,19.37,28.72Z"/><path class="cls-6" d="M430.24,469.39c7.81,15.46,4.52,30.51-1.7,45.45-.89,2.13-1.84,4.24-2.77,6.37L420.52,516c1.33-3,2.45-6.1,4.06-8.93,1.34-2.34,1.24-4-.29-6.31-17.7-26.29-38.56-49.21-67.51-63.55A44.18,44.18,0,0,1,358,431c3.86-10.84,7.75-21.67,11.89-32.41.66-1.72,2.6-2.94,3.95-4.39,7.45,10.35,14.72,20.82,22.39,31C407.44,440,418.9,454.67,430.24,469.39Z"/><path class="cls-5" d="M50.73,448.39c6.17-4.95,12.75-6.27,18.86-3.28,8.13,4,16.32,8.51,23.11,14.4,7.84,6.81,14.21,15.34,21.17,23.16a7.37,7.37,0,0,1,1.7,3c2.57,10.52-6.42,30.45-16.61,36.3C88.8,493.71,71.79,469.93,50.73,448.39Z"/><path class="cls-21" d="M373.87,394.19c-1.35,1.45-3.29,2.67-3.95,4.39-4.14,10.74-8,21.57-11.89,32.41a44.18,44.18,0,0,0-1.25,6.24l-26.39-6.61c-2-3.22-4.14-6.36-5.95-9.68-5-9.14-5.73-18.12,1.2-26.81,2.26-2.82,4.17-5.92,6.25-8.89,3.47.44,6.94,1.1,10.43,1.24,4,.16,7.94-.08,11.91-.27,6.1-.28,12.2-.67,18.29-1Z"/><path class="cls-12" d="M484.74,547.21H465.32c-6.56,0-6.56,0-6.57-6.34q0-35.86,0-71.72h26v9c-3.46,0-6.93-.12-10.37.15-.87.07-1.65,1.41-2.47,2.16.82.58,1.62,1.62,2.47,1.67,3.45.21,6.91.11,10.37.13,0,1,0,2,0,2.93-3.45,0-6.91-.06-10.35.14-.87,0-1.68,1-2.52,1.62.85.72,1.66,2,2.56,2.06,3.44.26,6.9.14,10.35.15Q484.78,518.2,484.74,547.21Z"/><path class="cls-5" d="M49,451.21c16.32,12.32,45.52,54.39,49.86,81.23-4.5-1-8.74-1.3-12.52-2.81a78.68,78.68,0,0,1-13.1-7.1c-4.85-3.09-8.54-6.06-8-13.61.69-10.31-6.87-17.49-14.4-23.88C41.74,477.39,40.85,459.9,49,451.21Z"/><path class="cls-5" d="M133.77,524.19c-5.65,0-11.32.36-17,.06-4.13-.23-5,1.41-5,5.19.14,22.27.07,44.54.07,66.82v5.8H96c7.41-17.25,11.06-35.16,8.77-53.93-.82-6.72-2.68-13.31-3.88-20-.25-1.39-.22-3.68.61-4.3,11.24-8.32,15.13-20.17,16.54-33.31,0-.11.18-.2.68-.73C125.52,500.59,130.9,511.82,133.77,524.19Z"/><path class="cls-11" d="M380.79,151.81c4.27-4.78,9.61-5.72,15.49-4,4.79,1.37,5.73,3.63,3.8,8.25-2.54,6.12-1.89,7,4.57,6.18,1.32-.16,2.87-.65,3.93-.16a45.66,45.66,0,0,1,5.89,3.79,58,58,0,0,1-3.71,4.67c-.88.91-2.13,1.45-4,2.7,3,2.51,5.77,4.55,8.26,6.84s5.88,4.48,2.9,8.23c-2.83,3.58-6.29,1.85-9.37-.15-2.48-1.61-4.87-3.34-7.09-4.87-.79.39-1.22.46-1.35.69-1.58,2.95-2.95,6.47-7.29,5.15-3.76-1.15-3.78-4.61-3.92-7.84-.13-2.94-.35-5.87-.6-9.9-2.17,1.8-3.33,3.23-4.83,3.9-2,.88-4.8,2.21-6.24,1.44-1.8-1-3.76-4-3.55-5.92.5-4.51,2.21-8.9,3.5-13.31a25.33,25.33,0,0,1,1.38-3.17Z"/><path class="cls-9" d="M12.87,532.23c-.29-.63-.59-1.26-.89-1.89l-.12-2.11C13.71,516,16.93,504.1,25,494.41c2.18-2.62,6.48-3.48,9.8-5.15l2.18.31a.6.6,0,0,0,.4.46C31.49,508,29.78,526.34,32,546.1c-3.17-1.22-5.82-1.59-7.6-3.05C20.31,539.73,16.68,535.87,12.87,532.23Z"/><path class="cls-9" d="M35.05,557.76c-2.64,10.5-4.5,21.06-2.33,31.91C21.84,581,16.13,569.28,12.89,556.1c-.4-1.61-.66-3.25-1-4.87l-.21-2-.21-15.16c4.59,3.93,8.61,9.29,13.93,11.4,5.71,2.27,8.51,5.17,9.19,10.84A8.34,8.34,0,0,0,35.05,557.76Z"/><path class="cls-9" d="M49.1,532.93,38.79,549.1,35,550.64c-3.94-20.8-1.81-40.6,4.09-60.14,7,3.37,11.89,11.05,9.75,17.71C46.15,516.69,44.62,524.72,49.1,532.93Z"/><path class="cls-11" d="M371.37,372l-5.89,3.23c-4.57-10.94-1.62-19.51,7.87-23l8.62-2c-.3,1.88-1.32,4.8-1.1,7.62.51,6.66-3.09,10.4-8.26,13.34Z"/><path class="cls-14" d="M39.12,490.5c-5.9,19.54-8,39.34-4.09,60.14l3.76-1.54-3.74,8.66a8.34,8.34,0,0,1-.45-1.42c-.68-5.67-3.48-8.57-9.19-10.84-5.32-2.11-9.34-7.47-13.93-11.4.47-.62.93-1.25,1.39-1.87,3.81,3.64,7.44,7.5,11.5,10.82,1.78,1.46,4.43,1.83,7.6,3.05C29.78,526.34,31.49,508,37.38,490Z"/><path class="cls-8" d="M484.73,482.28c-3.46,0-6.92.08-10.37-.13-.85,0-1.65-1.09-2.47-1.67.82-.75,1.6-2.09,2.47-2.16,3.44-.27,6.91-.14,10.37-.15Z"/><path class="cls-8" d="M484.81,489.18c-3.45,0-6.91.11-10.35-.15-.9-.07-1.71-1.34-2.56-2.06.84-.57,1.65-1.57,2.52-1.62,3.44-.2,6.9-.11,10.35-.14C484.78,486.54,484.8,487.86,484.81,489.18Z"/><path class="cls-12" d="M380.79,151.81l-2.27,2.48L362.9,140.35l1.11-1.21c3.72,3.35,7.34,6.84,11.22,10C376.78,150.41,378.92,151,380.79,151.81Z"/><path class="cls-14" d="M37,489.57l-2.18-.31Z"/><path class="cls-14" d="M11.69,549.26l.21,2Z"/><path class="cls-14" d="M11.86,528.23l.12,2.11Z"/><path class="cls-21" d="M371.37,372l1.24-.81-.12,1.06Z"/><path class="cls-13" d="M330.39,430.62l26.39,6.61c29,14.34,49.81,37.26,67.51,63.55,1.53,2.26,1.63,4,.29,6.31-1.61,2.83-2.73,5.94-4.06,8.93-1.42,1.73-3,3.37-4.24,5.19-5.66,8.09-10.89,16.55-19.48,22-3.3,1.84-5.24.62-7.31-2.36-2.86-4.15-6.43-7.81-9.7-11.67-2.81-2.88-4.38-7.83-10-6l-12.19,16.94c-9.59-2.9-14.54-10.11-17.86-19-3.76-10.05-7.74-20-11.62-30-.13-1-.27-2-.4-2.94.07-3.32,0-6.64.25-9.95.34-4.47-1.91-5.84-6-5.81-11.63.09-23.27,0-34.91,0-5.71,0-6.85,1.23-6.86,7.17,0,11.47,0,22.94,0,34.41a32.6,32.6,0,0,0-4.87,1c-2.18.78-5.91,1.73-6,2.88-.2,2.22,1.21,5,2.77,6.89,3.9,4.73,8.82,8.7,12.31,13.69,6.06,8.65,14.65,11.78,24.38,13.77,13,2.67,25.63,6.82,37.08,13.87-.35,2.29-.86,4.56-1.05,6.86-.71,8.75-1.27,17.52-2,26.27A40.24,40.24,0,0,1,310,636.05a202.19,202.19,0,0,1-57.55,2.33c-1.52-.16-3.12.51-4.69.8l-6.19-1.61c1.2-3.1,2.72-6.11,3.54-9.31,2.68-10.41,6.79-20.81,7.25-31.34.73-16.53-1.07-33.16-1.8-49.75l12.92,9.6,1.56-1.76c-5.62-10.89-14.54-19.19-22.34-28.37l-1.81,1.06q4.59,9.74,9.2,19.47l-19.19,33.32-7.08-6.41c-8.54-9.53-18.28-17.5-29.86-23.1a21,21,0,0,0-3.19-2.19c-6.7-3-6.7-3-4.42-9.91.77-2.33,1.47-4.68,2.2-7,5.78-14.32,11.27-28.77,17.46-42.92,3.52-8,8-15.69,12.39-23.32,7.71-13.41,20.1-21.44,33.42-28.3l4-2.05,17.93-5.12c9.09,8.38,19.84,11.87,32.14,11.35C315.55,441.08,323.17,436.39,330.39,430.62Z"/><path class="cls-8" d="M194,551c11.58,5.6,21.32,13.57,29.86,23.1-1.51,5-2.84,10.14-4.57,15.1-3,8.7-6.33,17.32-9.52,26l-5.16,11c-2.52-.61-5.07-1.08-7.54-1.83-10.11-3.08-20.19-6.24-30.28-9.38l7-19.25c-1.88-.16-3.57-.41-5.26-.42-14.31,0-28.61.06-42.92-.1-2,0-5.72,1.75-5.64-2.54.06-3.86,3.46-2.29,5.41-2.3,15.47-.13,30.94-.23,46.41,0,4,.07,5.5-1.68,6.89-4.88C183.65,573.92,188.86,562.47,194,551Z"/><path class="cls-14" d="M247.79,639.18c1.57-.29,3.17-1,4.69-.8A202.19,202.19,0,0,0,310,636.05a40.24,40.24,0,0,0,32.79-36.69c.71-8.75,1.27-17.52,2-26.27.19-2.3.7-4.57,1.05-6.86l16.06,9c2.29,14.29,4.47,28.59,6.95,42.84.57,3.31,2.16,6.45,3.28,9.68-20.12,6.39-40.1,13.27-60.41,19-16,4.52-32,.79-47.79-3C258.5,642.49,253.17,640.73,247.79,639.18Z"/><path class="cls-18" d="M209.76,615.15c3.19-8.65,6.48-17.27,9.52-26,1.73-5,3.06-10.06,4.57-15.1l7.08,6.41c6.51-11.3,12.85-22.31,19.18-33.32h.48c.73,16.59,2.53,33.22,1.8,49.75-.46,10.53-4.57,20.93-7.25,31.34-.82,3.2-2.34,6.21-3.54,9.31l-21.85-6.42c0-1.83,0-3.65,0-5.48C219.72,615.49,219.72,615.49,209.76,615.15Z"/><path class="cls-12" d="M121.77,611.11v-7.6h37.12V613A92.9,92.9,0,0,0,121.77,611.11Z"/><path class="cls-12" d="M209.76,615.15c10,.34,10,.34,10,10.52,0,1.83,0,3.65,0,5.48l-15.15-5Z"/><path class="cls-12" d="M133.62,546.26c-3.15,0-6.33-.21-9.46,0-3.64.31-4.44-1.27-4.43-4.61,0-9.45-.11-9.45,9.49-9.45,4.82,0,9.64.11,14.45,0,2.85-.09,4.25.62,4.17,3.84-.28,12.56,1.4,9.89-9.73,10.2C136.61,546.3,135.12,546.26,133.62,546.26Z"/><path class="cls-8" d="M361.91,575.26l-16.06-9c-11.45-7.05-24-11.2-37.08-13.87-9.73-2-18.32-5.12-24.38-13.77-3.49-5-8.41-9-12.31-13.69-1.56-1.88-3-4.67-2.77-6.89.11-1.15,3.84-2.1,6-2.88a32.6,32.6,0,0,1,4.87-1l17.64,2c6.63,1.34,13.21,3.11,19.9,3.91,5.78.7,8.23-1.81,8.73-7.56.62-7.08,1.1-14.18,1.64-21.27,3.88,10,7.86,20,11.62,30,3.32,8.86,8.27,16.07,17.86,19l6.17,3.13a23.54,23.54,0,0,0,16,3.55V529.22c3.27,3.86,6.84,7.52,9.7,11.67,2.07,3,4,4.2,7.31,2.36.91,4,3.6,5.17,7.39,5a45.48,45.48,0,0,1,29.8,9.15c4.13,3,7.88,6.57,11.8,9.87,1.3,2.12,2.61,4.23,3.89,6.35,3.72,6.15,2.77,12.51-3.54,15.74-5.44,2.78-11.59,5.09-17.61,5.66-16.3,1.52-31.93-2.19-46.72-9C375,582.86,368.53,578.87,361.91,575.26Z"/><path class="cls-15" d="M445.79,567.26c-3.92-3.3-7.67-6.84-11.8-9.87a45.48,45.48,0,0,0-29.8-9.15c-3.79.18-6.48-1-7.39-5,8.59-5.49,13.82-14,19.48-22,1.28-1.82,2.82-3.46,4.24-5.19l5.25,5.19c2.73,5.25,5.82,10.35,8.12,15.79C438.1,547,441.85,557.17,445.79,567.26Z"/><path class="cls-14" d="M1932.77,580.27c9.71-5.2,19.58-10.13,29.07-15.71,4.62-2.71,8.71-6.42,12.7-10,3-2.68,3.13-6,.35-9.21,3.93.49,8,.53,11.75,1.57,4.74,1.31,5.67,5.14,1.72,8a131.62,131.62,0,0,1-19.84,12.23c-9.55,4.59-19.56,8.23-29.43,12.1C1937.14,580,1934.88,579.93,1932.77,580.27Z"/><path class="cls-15" d="M1945.75,535.22l-31.68-6.39c-1.46-.29-2.94-.5-4.41-.75l4.94-12.14a85.51,85.51,0,0,0,31.08,12.28C1945.7,530.55,1945.72,532.89,1945.75,535.22Z"/><path class="cls-14" d="M1930.8,581.19l2-1Z"/><path class="cls-12" d="M1563.05,529.77c9.93,3.38,18.74,6.34,27.5,9.43.78.27,1.92,1.54,1.78,2a105.33,105.33,0,0,1-4.2,12.69c-.31.73-3,1.07-4.31.67-8.1-2.49-16.11-5.25-24.14-7.93-.63-.21-1.8-.53-1.78-.7a92.86,92.86,0,0,1,1.8-12.13C1560.11,532.22,1562,531,1563.05,529.77Z"/><path class="cls-8" d="M1610.72,622.75c-1.88.36-4,1.45-5.6,1-10.44-3.24-20.78-6.84-31.15-10.29-10.7-3.57-21.45-7-32.08-10.77-1.52-.54-2.49-2.61-3.72-4,1.82-.45,3.91-1.72,5.42-1.23,21,6.8,41.91,13.82,62.82,20.86a25.81,25.81,0,0,1,4.41,2.5C1610.79,621.45,1610.76,622.1,1610.72,622.75Z"/><path class="cls-12" d="M1916.94,234.16c4.11,4.76,7.92,9.11,11.66,13.53,1.79,2.12,3.48,4.23-.1,6.47-2.73,1.71-4.62,6.74-8.66,1.63-3-3.77-5.9-7.61-9.21-11.07-2.67-2.79-1.68-4.62.78-6.5C1913.1,236.92,1914.85,235.69,1916.94,234.16Z"/><path class="cls-12" d="M1900.7,335.5c6-.65,7.57.68,6.35,5.2-.83,3.11-.29,6.56-.63,9.84-.24,2.28-1.25,4.36-4.14,3.49-2.37-.71-6.09.05-5.49-4.52.49-3.74.4-7.59,1.23-11.24C1898.36,336.79,1900.47,335.72,1900.7,335.5Z"/><path class="cls-6" d="M1905.23,477.39l-5.5-.17c-.38-5-.93-10-5.65-13.09l-1.24-1,.07.05c-2.82-2-5.42-4.38-8.49-5.82-8.68-4.06-17.67-7.47-26.31-11.61-13-6.24-23.58-2.91-30.28,10-1.19,2.29-2.54,4.5-3.82,6.75a36.52,36.52,0,0,1,1.26-5.15c1.63-4,2.94-8,.47-12.18.5-1.22,1-2.47,1.53-3.66,5.56-11.67,7.88-13,20.79-12.35a44.91,44.91,0,0,0,4.86-.48c5.24-.3,10.85-1.88,15.63-.53,9.66,2.71,18.87,7,28.26,10.69,6.72,4.93,12.62,10.46,14,19.3-1.28,2.49-3,4.85-3.73,7.5C1906,469.42,1905.79,473.45,1905.23,477.39Z"/><path class="cls-19" d="M1896.81,438.8c-9.39-3.66-18.6-8-28.26-10.69-4.78-1.35-10.39.23-15.63.53a44.91,44.91,0,0,1-4.86.48c-12.91-.65-15.23.68-20.79,12.35-.57,1.19-1,2.44-1.53,3.66a24.52,24.52,0,0,1-4.66-1.33c-3.87-2-7.28-1.73-10.32,1.52l-3.34-2.05c19.57-26.95,60.16-29.54,87.2-7.55A14.24,14.24,0,0,1,1896.81,438.8Z"/><path class="cls-19" d="M1905.23,477.39c.56-3.94.8-8,1.8-11.79.69-2.65,2.45-5,3.73-7.5,1,1.33,2.44,2.52,3,4a51.62,51.62,0,0,1,2.55,25.75l-1.19.09C1913.53,482.84,1910,479.53,1905.23,477.39Z"/><path class="cls-14" d="M1781.82,303.25l-5.06-8.05Z"/><path class="cls-14" d="M1776.8,295.26l-4-6.06Z"/><path class="cls-14" d="M1771.81,287.24l-3.06-3Z"/><path class="cls-14" d="M1772.8,289.27c-.34-.7-.68-1.39-1-2.08C1772.12,287.88,1772.46,288.57,1772.8,289.27Z"/><path class="cls-14" d="M1768.81,284.26l-1.06-1.06Z"/><path class="cls-8" d="M1894.08,464.13c4.72,3.14,5.27,8.08,5.65,13.09-3.23,6.83-6.62,13.59-9.65,20.51s-5.8,13.71-8.26,20.72c-1.44,4.1-2,8.5-3,12.76a41.52,41.52,0,0,1-4.2,4.19,6.58,6.58,0,0,1-9.89-1.84c-10.74-17.89-28.09-21.9-47-21.87-8.25,0-10.26-1.47-8.58-9.59.4-1.94.9-3.87,1.36-5.8l2.25-5.07a10.51,10.51,0,0,0,1.81-1.63c5.67-8.13,10.84-16.66,17.06-24.35,5.59-6.9,13-11.65,22.56-9.94,10.22,1.84,20.34,4.24,30.51,6.35,2.73.57,5.48,1,8.23,1.48l-.07-.05Z"/><path class="cls-15" d="M1892.91,463.14c-2.75-.49-5.5-.91-8.23-1.48-10.17-2.11-20.29-4.51-30.51-6.35-9.55-1.71-17,3-22.56,9.94-6.22,7.69-11.39,16.22-17.06,24.35a10.51,10.51,0,0,1-1.81,1.63l9.94-25a1.44,1.44,0,0,0,.27-.94l-.11.05,1.11-3.07.06.21c1.28-2.25,2.63-4.46,3.82-6.75,6.7-12.91,17.25-16.24,30.28-10,8.64,4.14,17.63,7.55,26.31,11.61C1887.49,458.76,1890.09,461.17,1892.91,463.14Z"/><path class="cls-6" d="M1824,462.25l-1.11,3.07Z"/><path class="cls-6" d="M1823,465.27a1.44,1.44,0,0,1-.27.94Z"/><path class="cls-8" d="M330.39,430.62c-7.22,5.77-14.84,10.46-24.52,10.87-12.3.52-23.05-3-32.14-11.35,6-3.85,11.1-8.29,12.69-15.78,1.86-8.74-.94-14.87-8.65-19.21-3.57-2-6.71-4.8-10-7.24-9.38-9.55-8.4-21.37-5.61-32.58a317.68,317.68,0,0,1,13.29-40.07c3.94-9.93,11-15.36,19.86-17.9-2.29,24.29,14.47,39,27.73,55.47,1.46,1.81,2.93,3.63,4.55,5.3,7.83,8,9.93,16.95,4.35,27.11-2.08,3-4,6.07-6.25,8.89-6.93,8.69-6.21,17.67-1.2,26.81C326.25,424.26,328.4,427.4,330.39,430.62Z"/><path class="cls-21" d="M267.72,387.91c3.34,2.44,6.48,5.22,10,7.24,7.71,4.34,10.51,10.47,8.65,19.21-1.59,7.49-6.7,11.93-12.69,15.78l-17.93,5.12c-3-9.75-6-19.52-9.13-29.24-1.5-4.68-3.24-9.29-5.21-14.89,4.27-.7,7.9-1.44,11.57-1.87C257.91,388.69,262.82,388.35,267.72,387.91Z"/><path class="cls-9" d="M42.48,548.92l19.37,28.72C56.31,577,42.22,556.44,42.48,548.92Z"/><path class="cls-9" d="M83.53,592.16c-.6.28-1.42,1-1.75.77-6.14-3.53-12.22-7.16-18.31-10.77L64.75,580l18.92,12Z"/><path class="cls-2" d="M297.84,516.12l-17.64-2c0-11.47,0-22.94,0-34.41,0-5.94,1.15-7.15,6.86-7.17,11.64,0,23.28,0,34.91,0,4.08,0,6.33,1.34,6,5.81-.25,3.31-.18,6.63-.25,9.95-2.9,5.76-5.2,11.93-8.84,17.18C314,512.51,305.5,513.79,297.84,516.12Z"/><path class="cls-6" d="M297.84,516.12c7.66-2.33,16.12-3.61,21-10.68,3.64-5.25,5.94-11.42,8.84-17.18.13,1,.27,2,.4,2.94-.54,7.09-1,14.19-1.64,21.27-.5,5.75-3,8.26-8.73,7.56C311.05,519.23,304.47,517.46,297.84,516.12Z"/><path class="cls-4" d="M379.79,529.22v17.65a23.54,23.54,0,0,1-16-3.55q3-10,6-20.07C375.41,521.39,377,526.34,379.79,529.22Z"/><path class="cls-14" d="M250.59,547.17h-.48l-9.19-19.47,1.81-1.06c7.8,9.18,16.72,17.48,22.34,28.37l-1.56,1.76Z"/><path class="cls-14" d="M369.78,523.25q-3,10-6,20.07l-6.17-3.13Z"/><path class="cls-15" d="M1894.08,464.13l-1.24-1Z"/></g></g></svg>