<svg enable-background="new 0 0 3672.1 567.8" viewBox="0 0 3672.1 567.8" xmlns="http://www.w3.org/2000/svg" xmlns:xlink="http://www.w3.org/1999/xlink"><linearGradient id="a"><stop offset="0" stop-color="#26b482"/><stop offset="1" stop-color="#1ad1cc"/></linearGradient><linearGradient id="b" gradientUnits="userSpaceOnUse" x1="1835.995" x2="1835.995" xlink:href="#a" y1="401.9875" y2="0"/><linearGradient id="c" gradientUnits="userSpaceOnUse" x1="1836.0255" x2="1836.0255" xlink:href="#a" y1="567.7883" y2="145.0611"/><g clip-rule="evenodd" fill-rule="evenodd"><path d="m0 402h3671.9l.1-169.8s-470.9 42.2-926.1-135.6c-548.1-214-976-9-1036 14.3-146.1 56.5-367.1 233.8-1099.5 53.8-274.3-76.9-610.4-24-610.4-24z" fill="url(#b)"/><path d="m0 567.8h3672l.1-178.6s-495.2 44.3-973.9-142.6c-576.4-225-1026.3-9.4-1089.5 15-153.7 59.4-386 245.9-1156.2 56.6-288.4-80.8-452.5-45-452.5-45z" fill="url(#c)"/></g></svg>