<svg class="height-5 width-5 vertical-align-middle {{include.class}}" height="24" viewBox="0 0 512 512" width="24" xmlns="http://www.w3.org/2000/svg"><path d="m256 512c-141.384896 0-256-114.615104-256-256s114.615104-256 256-256 256 114.615104 256 256-114.615104 256-256 256zm-70.254579-119.0134c4.899807 1.594257 10.61296.587434 14.719619-3.609501l43.261959-44.27878 84.872989 62.447842c10.376041 7.641448 25.177898 1.952842 27.804153-10.676602l56.22249-269.385045c2.752777-13.201999-10.206526-24.197508-22.743269-19.294471l-329.2436666 128.589584c-10.6511953 4.181495-10.0161281 19.506255.9740973 22.754424l83.6667303 24.771293 31.212879 99.319121c1.329723 4.223597 4.296348 7.250979 7.859299 8.82885.348949.427636.883982.598318 1.392713.533283zm162.858636-224.941183c3.670374-3.249665-.594497-8.982774-4.753515-6.392158l-180.95238 112.317944c-3.18296 1.974683-4.646432 5.861224-3.522672 9.449652l24.67717 108.453577c.488645 1.656862 2.864172 1.422807 3.077108-.29688l5.516638-82.650889c.211705-2.03874 1.187764-3.907482 2.716471-5.266232z"/></svg>