<svg class="height-5 width-5 vertical-align-middle {{include.class}}" height="24" viewBox="0 0 512 512" width="24" xmlns="http://www.w3.org/2000/svg"><path d="m256 513c-141.384896 0-256-114.615104-256-256s114.615104-256 256-256 256 114.615104 256 256-114.615104 256-256 256zm110.534297-143.848607c5.023133-8.512778 2.127719-19.447119-6.470191-24.416338-24.458387-14.157513-52.375942-24.252927-82.982374-30.004457-24.164818-4.540749-50.062468-6.397451-76.962927-5.518638-45.668038 1.49128-78.512603 10.328306-79.886917 10.702735-9.587729 2.614566-15.216185 12.430767-12.584463 21.930442 2.633021 9.499674 12.546792 15.091654 22.139717 12.496389.302661-.084922 30.822062-8.223273 72.439899-9.476514 37.568934-1.133579 92.286926 3.27464 139.650126 30.69284 2.86164 1.65469 5.990869 2.442148 9.078531 2.442148 6.196107 0 12.225946-3.167845 15.578599-8.848607zm32.547179-69.665349c5.94525-10.116376 2.518492-23.10876-7.654088-29.020844-28.937355-16.824912-61.970991-28.819471-98.184855-35.655802-28.590916-5.395744-59.230622-7.601803-91.062751-6.557507-54.036639 1.773625-92.894854 12.274673-94.523246 12.720015-11.3455398 3.110944-18.0044273 14.771173-14.8903723 26.06222 3.1140549 11.291047 14.8462573 17.931169 26.1956893 14.851206.356819-.098105 36.468179-9.769137 85.711768-11.260067 44.453134-1.343772 109.196931 3.890616 165.235648 36.472909 3.383939 1.967252 7.085772 2.901826 10.740894 2.901826 7.329707 0 14.467381-3.762822 18.431313-10.513956zm20.749533-62.486044c8.985731 0 17.732879-4.633929 22.592694-12.95167 7.285832-12.459113 3.084712-28.463344-9.378613-35.745419-35.469647-20.723709-75.962487-35.497843-120.353032-43.915391-35.046942-6.645638-72.60548-9.362482-111.624037-8.077944-66.238967 2.182808-113.8698213 15.116331-115.864057 15.665922-13.919454 3.832875-22.0934864 18.218147-18.2580188 32.132897 3.834171 13.91475 18.2243061 22.08602 32.1437601 18.251849 1.7271277-.475707 174.4346817-46.716489 307.5751987 31.064825 4.149255 2.423902 8.686207 3.574931 13.166105 3.574931z"/></svg>