<svg class="height-5 width-5 vertical-align-middle {{include.class}}" height="24" viewBox="0 0 512 512" width="24" xmlns="http://www.w3.org/2000/svg"><path d="m256 512c-141.384896 0-256-114.615104-256-256s114.615104-256 256-256 256 114.615104 256 256-114.615104 256-256 256zm-46-311.938462v195.938462h61.25v-98.165169c0-25.925108 11.28225-50.319446 43.3895-50.319446 23.75275 0 30.1105 17.793661 30.1105 50.319446v98.165169h61.25v-111.170585c0-61.806338-19.63675-87.829415-77.23625-87.829415-30.04925 0-52.773 16.703754-60.57625 32.342092v-29.280554zm-97 195.938462h61v-196h-61zm67-263c0-20.440984-16.571148-37-37-37s-37 16.559016-37 37c0 20.428852 16.571148 37 37 37s37-16.571148 37-37z"/></svg>